<?xml version="1.0" encoding="UTF-8" standalone="no"?><svg xmlns="http://www.w3.org/2000/svg" xmlns:xlink="http://www.w3.org/1999/xlink" contentScriptType="application/ecmascript" contentStyleType="text/css" height="1614px" preserveAspectRatio="none" style="width:3194px;height:1614px;background:#FFFFFF;" version="1.1" viewBox="0 0 3194 1614" width="3194px" zoomAndPan="magnify"><defs><filter height="300%" id="f58g3z0k5qq13" width="300%" x="-1" y="-1"><feGaussianBlur result="blurOut" stdDeviation="2.0"/><feColorMatrix in="blurOut" result="blurOut2" type="matrix" values="0 0 0 0 0 0 0 0 0 0 0 0 0 0 0 0 0 0 .4 0"/><feOffset dx="4.0" dy="4.0" in="blurOut2" result="blurOut3"/><feBlend in="SourceGraphic" in2="blurOut3" mode="normal"/></filter></defs><g><!--MD5=[5e9e8acaea1a1a52cbf19f9bb86cec01]
cluster com.lado.App--><polygon fill="#FFFFFF" filter="url(#f58g3z0k5qq13)" points="16,6,132,6,139,28.2969,3177,28.2969,3177,1607,16,1607,16,6" style="stroke:#000000;stroke-width:1.5;"/><line style="stroke:#000000;stroke-width:1.5;" x1="16" x2="139" y1="28.2969" y2="28.2969"/><text fill="#000000" font-family="sans-serif" font-size="14" font-weight="bold" lengthAdjust="spacing" textLength="110" x="20" y="20.9951">com.lado.App</text><!--MD5=[15636c1ca4a123c16a2a1a8e90aca7a9]
cluster Model--><polygon fill="#F2A5A2" filter="url(#f58g3z0k5qq13)" points="1488,564.5,1542,564.5,1549,586.7969,3153,586.7969,3153,1583,1488,1583,1488,564.5" style="stroke:#000000;stroke-width:1.5;"/><line style="stroke:#000000;stroke-width:1.5;" x1="1488" x2="1549" y1="586.7969" y2="586.7969"/><text fill="#000000" font-family="sans-serif" font-size="14" font-weight="bold" lengthAdjust="spacing" textLength="48" x="1492" y="579.4951">Model</text><!--MD5=[9e83cf350cee93aa3efb004ab5834683]
cluster Tamagotchi--><polygon fill="#EDC4C2" filter="url(#f58g3z0k5qq13)" points="1512,769,1616,769,1623,791.2969,2622,791.2969,2622,1559,1512,1559,1512,769" style="stroke:#000000;stroke-width:1.5;"/><line style="stroke:#000000;stroke-width:1.5;" x1="1512" x2="1623" y1="791.2969" y2="791.2969"/><text fill="#000000" font-family="sans-serif" font-size="14" font-weight="bold" lengthAdjust="spacing" textLength="98" x="1516" y="783.9951">Tamagotchi</text><!--MD5=[7e561ad56acf25b1d8dee4fe92f1fb02]
cluster saveData--><polygon fill="#EDC4C2" filter="url(#f58g3z0k5qq13)" points="2646,607.5,2728,607.5,2735,629.7969,3129,629.7969,3129,1095.5,2646,1095.5,2646,607.5" style="stroke:#000000;stroke-width:1.5;"/><line style="stroke:#000000;stroke-width:1.5;" x1="2646" x2="2735" y1="629.7969" y2="629.7969"/><text fill="#000000" font-family="sans-serif" font-size="14" font-weight="bold" lengthAdjust="spacing" textLength="76" x="2650" y="622.4951">saveData</text><!--MD5=[1f2cfc53d9d308f53762fd0fcbaa4873]
cluster Controller--><polygon fill="#7AD7FF" filter="url(#f58g3z0k5qq13)" points="1084,366,1171,366,1178,388.2969,1464,388.2969,1464,745,1084,745,1084,366" style="stroke:#000000;stroke-width:1.5;"/><line style="stroke:#000000;stroke-width:1.5;" x1="1084" x2="1178" y1="388.2969" y2="388.2969"/><text fill="#000000" font-family="sans-serif" font-size="14" font-weight="bold" lengthAdjust="spacing" textLength="81" x="1088" y="380.9951">Controller</text><!--MD5=[e320b41f2d43b11d6de1346cab4ea5fc]
cluster View--><polygon fill="#B2FF91" filter="url(#f58g3z0k5qq13)" points="40,49,84,49,91,71.2969,1060,71.2969,1060,540.5,40,540.5,40,49" style="stroke:#000000;stroke-width:1.5;"/><line style="stroke:#000000;stroke-width:1.5;" x1="40" x2="91" y1="71.2969" y2="71.2969"/><text fill="#000000" font-family="sans-serif" font-size="14" font-weight="bold" lengthAdjust="spacing" textLength="38" x="44" y="63.9951">View</text><!--MD5=[34abd5311f45c908a0a37c69ef7f048b]
cluster UIPackage--><polygon fill="#96FF69" filter="url(#f58g3z0k5qq13)" points="64,92,153,92,160,114.2969,918,114.2969,918,516.5,64,516.5,64,92" style="stroke:#000000;stroke-width:1.5;"/><line style="stroke:#000000;stroke-width:1.5;" x1="64" x2="160" y1="114.2969" y2="114.2969"/><text fill="#000000" font-family="sans-serif" font-size="14" font-weight="bold" lengthAdjust="spacing" textLength="83" x="68" y="106.9951">UIPackage</text><!--MD5=[335f4d9be48430461c68bf6d6fdba145]
class App--><rect codeLine="3" fill="#FEFECE" filter="url(#f58g3z0k5qq13)" height="112.0234" id="App" style="stroke:#A80036;stroke-width:1.5;" width="180" x="1184" y="95"/><ellipse cx="1257.75" cy="111" fill="#ADD1B2" rx="11" ry="11" style="stroke:#A80036;stroke-width:1.0;"/><path d="M1260.0938,106.6719 C1259.1563,106.2344 1258.5625,106.0938 1257.6875,106.0938 C1255.0625,106.0938 1253.0625,108.1719 1253.0625,110.8906 L1253.0625,112.0156 C1253.0625,114.5938 1255.1719,116.4844 1258.0625,116.4844 C1259.2813,116.4844 1260.4375,116.1875 1261.1875,115.6406 C1261.7656,115.2344 1262.0938,114.7813 1262.0938,114.3906 C1262.0938,113.9375 1261.7031,113.5469 1261.2344,113.5469 C1261.0156,113.5469 1260.8125,113.625 1260.625,113.8125 C1260.1719,114.2969 1260.1719,114.2969 1259.9844,114.3906 C1259.5625,114.6563 1258.875,114.7813 1258.1094,114.7813 C1256.0625,114.7813 1254.7656,113.6875 1254.7656,111.9844 L1254.7656,110.8906 C1254.7656,109.1094 1256.0156,107.7969 1257.75,107.7969 C1258.3281,107.7969 1258.9375,107.9531 1259.4063,108.2031 C1259.8906,108.4844 1260.0625,108.7031 1260.1563,109.1094 C1260.2188,109.5156 1260.25,109.6406 1260.3906,109.7656 C1260.5313,109.9063 1260.7656,110.0156 1260.9844,110.0156 C1261.25,110.0156 1261.5156,109.875 1261.6875,109.6563 C1261.7969,109.5 1261.8281,109.3125 1261.8281,108.8906 L1261.8281,107.4688 C1261.8281,107.0313 1261.8125,106.9063 1261.7188,106.75 C1261.5625,106.4844 1261.2813,106.3438 1260.9844,106.3438 C1260.6875,106.3438 1260.4844,106.4375 1260.2656,106.75 L1260.0938,106.6719 Z " fill="#000000"/><text fill="#000000" font-family="sans-serif" font-size="12" lengthAdjust="spacing" textLength="24" x="1278.25" y="115.1543">App</text><line style="stroke:#A80036;stroke-width:1.5;" x1="1185" x2="1363" y1="127" y2="127"/><rect fill="none" height="6" style="stroke:#C82930;stroke-width:1.0;" width="6" x="1192" y="135"/><text fill="#000000" font-family="sans-serif" font-size="11" lengthAdjust="spacing" textLength="116" x="1204" y="141.2104">model : GameModel</text><rect fill="none" height="6" style="stroke:#C82930;stroke-width:1.0;" width="6" x="1192" y="147.8047"/><text fill="#000000" font-family="sans-serif" font-size="11" lengthAdjust="spacing" textLength="101" x="1204" y="154.0151">view : GameView</text><rect fill="none" height="6" style="stroke:#C82930;stroke-width:1.0;" width="6" x="1192" y="160.6094"/><text fill="#000000" font-family="sans-serif" font-size="11" lengthAdjust="spacing" textLength="154" x="1204" y="166.8198">controller : GameController</text><line style="stroke:#A80036;stroke-width:1.0;" x1="1185" x2="1363" y1="173.4141" y2="173.4141"/><ellipse cx="1195" cy="184.4141" fill="#84BE84" rx="3" ry="3" style="stroke:#038048;stroke-width:1.0;"/><text fill="#000000" font-family="sans-serif" font-size="11" lengthAdjust="spacing" textLength="30" x="1204" y="187.6245">App()</text><ellipse cx="1195" cy="197.2188" fill="#84BE84" rx="3" ry="3" style="stroke:#038048;stroke-width:1.0;"/><text fill="#000000" font-family="sans-serif" font-size="11" lengthAdjust="spacing" textLength="147" x="1204" y="200.4292">main(args : String[]) : void</text><!--MD5=[b66de860dace0d17c278c29ddf327d4c]
class GameModel--><rect codeLine="20" fill="#FEFECE" filter="url(#f58g3z0k5qq13)" height="86.4141" id="GameModel" style="stroke:#A80036;stroke-width:1.5;" width="201" x="1504.5" y="649"/><ellipse cx="1564.75" cy="665" fill="#ADD1B2" rx="11" ry="11" style="stroke:#A80036;stroke-width:1.0;"/><path d="M1567.0938,660.6719 C1566.1563,660.2344 1565.5625,660.0938 1564.6875,660.0938 C1562.0625,660.0938 1560.0625,662.1719 1560.0625,664.8906 L1560.0625,666.0156 C1560.0625,668.5938 1562.1719,670.4844 1565.0625,670.4844 C1566.2813,670.4844 1567.4375,670.1875 1568.1875,669.6406 C1568.7656,669.2344 1569.0938,668.7813 1569.0938,668.3906 C1569.0938,667.9375 1568.7031,667.5469 1568.2344,667.5469 C1568.0156,667.5469 1567.8125,667.625 1567.625,667.8125 C1567.1719,668.2969 1567.1719,668.2969 1566.9844,668.3906 C1566.5625,668.6563 1565.875,668.7813 1565.1094,668.7813 C1563.0625,668.7813 1561.7656,667.6875 1561.7656,665.9844 L1561.7656,664.8906 C1561.7656,663.1094 1563.0156,661.7969 1564.75,661.7969 C1565.3281,661.7969 1565.9375,661.9531 1566.4063,662.2031 C1566.8906,662.4844 1567.0625,662.7031 1567.1563,663.1094 C1567.2188,663.5156 1567.25,663.6406 1567.3906,663.7656 C1567.5313,663.9063 1567.7656,664.0156 1567.9844,664.0156 C1568.25,664.0156 1568.5156,663.875 1568.6875,663.6563 C1568.7969,663.5 1568.8281,663.3125 1568.8281,662.8906 L1568.8281,661.4688 C1568.8281,661.0313 1568.8125,660.9063 1568.7188,660.75 C1568.5625,660.4844 1568.2813,660.3438 1567.9844,660.3438 C1567.6875,660.3438 1567.4844,660.4375 1567.2656,660.75 L1567.0938,660.6719 Z " fill="#000000"/><text fill="#000000" font-family="sans-serif" font-size="12" lengthAdjust="spacing" textLength="72" x="1585.25" y="669.1543">GameModel</text><line style="stroke:#A80036;stroke-width:1.5;" x1="1505.5" x2="1704.5" y1="681" y2="681"/><ellipse cx="1515.5" cy="692" rx="3" ry="3" style="stroke:#038048;stroke-width:1.0;fill:none;"/><text fill="#000000" font-family="sans-serif" font-size="11" lengthAdjust="spacing" textLength="140" x="1524.5" y="695.2104">Tamagotchi : tamagotchi</text><ellipse cx="1515.5" cy="704.8047" rx="3" ry="3" style="stroke:#038048;stroke-width:1.0;fill:none;"/><text fill="#000000" font-family="sans-serif" font-size="11" lengthAdjust="spacing" textLength="175" x="1524.5" y="708.0151">gameManager : gameManager</text><line style="stroke:#A80036;stroke-width:1.0;" x1="1505.5" x2="1704.5" y1="714.6094" y2="714.6094"/><ellipse cx="1515.5" cy="725.6094" fill="#84BE84" rx="3" ry="3" style="stroke:#038048;stroke-width:1.0;"/><text fill="#000000" font-family="sans-serif" font-size="11" lengthAdjust="spacing" textLength="77" x="1524.5" y="728.8198">GameModel()</text><!--MD5=[8d10b9619f233caeee54837354dd5717]
class Cat--><rect codeLine="34" fill="#FEFECE" filter="url(#f58g3z0k5qq13)" height="60.8047" id="Cat" style="stroke:#A80036;stroke-width:1.5;" width="130" x="1528" y="1418"/><ellipse cx="1579.25" cy="1434" fill="#ADD1B2" rx="11" ry="11" style="stroke:#A80036;stroke-width:1.0;"/><path d="M1581.5938,1429.6719 C1580.6563,1429.2344 1580.0625,1429.0938 1579.1875,1429.0938 C1576.5625,1429.0938 1574.5625,1431.1719 1574.5625,1433.8906 L1574.5625,1435.0156 C1574.5625,1437.5938 1576.6719,1439.4844 1579.5625,1439.4844 C1580.7813,1439.4844 1581.9375,1439.1875 1582.6875,1438.6406 C1583.2656,1438.2344 1583.5938,1437.7813 1583.5938,1437.3906 C1583.5938,1436.9375 1583.2031,1436.5469 1582.7344,1436.5469 C1582.5156,1436.5469 1582.3125,1436.625 1582.125,1436.8125 C1581.6719,1437.2969 1581.6719,1437.2969 1581.4844,1437.3906 C1581.0625,1437.6563 1580.375,1437.7813 1579.6094,1437.7813 C1577.5625,1437.7813 1576.2656,1436.6875 1576.2656,1434.9844 L1576.2656,1433.8906 C1576.2656,1432.1094 1577.5156,1430.7969 1579.25,1430.7969 C1579.8281,1430.7969 1580.4375,1430.9531 1580.9063,1431.2031 C1581.3906,1431.4844 1581.5625,1431.7031 1581.6563,1432.1094 C1581.7188,1432.5156 1581.75,1432.6406 1581.8906,1432.7656 C1582.0313,1432.9063 1582.2656,1433.0156 1582.4844,1433.0156 C1582.75,1433.0156 1583.0156,1432.875 1583.1875,1432.6563 C1583.2969,1432.5 1583.3281,1432.3125 1583.3281,1431.8906 L1583.3281,1430.4688 C1583.3281,1430.0313 1583.3125,1429.9063 1583.2188,1429.75 C1583.0625,1429.4844 1582.7813,1429.3438 1582.4844,1429.3438 C1582.1875,1429.3438 1581.9844,1429.4375 1581.7656,1429.75 L1581.5938,1429.6719 Z " fill="#000000"/><text fill="#000000" font-family="sans-serif" font-size="12" lengthAdjust="spacing" textLength="19" x="1599.75" y="1438.1543">Cat</text><line style="stroke:#A80036;stroke-width:1.5;" x1="1529" x2="1657" y1="1450" y2="1450"/><line style="stroke:#A80036;stroke-width:1.5;" x1="1529" x2="1657" y1="1458" y2="1458"/><ellipse cx="1539" cy="1469" fill="#84BE84" rx="3" ry="3" style="stroke:#038048;stroke-width:1.0;"/><text fill="#000000" font-family="sans-serif" font-size="11" lengthAdjust="spacing" textLength="104" x="1548" y="1472.2104">Cat(name : String)</text><!--MD5=[e65995e6249d51050b2a77595098ec55]
class Tamagotchi--><rect codeLine="82" fill="#FEFECE" filter="url(#f58g3z0k5qq13)" height="489.75" id="Tamagotchi" style="stroke:#A80036;stroke-width:1.5;" width="375" x="1659.5" y="804"/><ellipse cx="1808.25" cy="820" fill="#ADD1B2" rx="11" ry="11" style="stroke:#A80036;stroke-width:1.0;"/><path d="M1810.5938,815.6719 C1809.6563,815.2344 1809.0625,815.0938 1808.1875,815.0938 C1805.5625,815.0938 1803.5625,817.1719 1803.5625,819.8906 L1803.5625,821.0156 C1803.5625,823.5938 1805.6719,825.4844 1808.5625,825.4844 C1809.7813,825.4844 1810.9375,825.1875 1811.6875,824.6406 C1812.2656,824.2344 1812.5938,823.7813 1812.5938,823.3906 C1812.5938,822.9375 1812.2031,822.5469 1811.7344,822.5469 C1811.5156,822.5469 1811.3125,822.625 1811.125,822.8125 C1810.6719,823.2969 1810.6719,823.2969 1810.4844,823.3906 C1810.0625,823.6563 1809.375,823.7813 1808.6094,823.7813 C1806.5625,823.7813 1805.2656,822.6875 1805.2656,820.9844 L1805.2656,819.8906 C1805.2656,818.1094 1806.5156,816.7969 1808.25,816.7969 C1808.8281,816.7969 1809.4375,816.9531 1809.9063,817.2031 C1810.3906,817.4844 1810.5625,817.7031 1810.6563,818.1094 C1810.7188,818.5156 1810.75,818.6406 1810.8906,818.7656 C1811.0313,818.9063 1811.2656,819.0156 1811.4844,819.0156 C1811.75,819.0156 1812.0156,818.875 1812.1875,818.6563 C1812.2969,818.5 1812.3281,818.3125 1812.3281,817.8906 L1812.3281,816.4688 C1812.3281,816.0313 1812.3125,815.9063 1812.2188,815.75 C1812.0625,815.4844 1811.7813,815.3438 1811.4844,815.3438 C1811.1875,815.3438 1810.9844,815.4375 1810.7656,815.75 L1810.5938,815.6719 Z " fill="#000000"/><text fill="#000000" font-family="sans-serif" font-size="12" lengthAdjust="spacing" textLength="69" x="1828.75" y="824.1543">Tamagotchi</text><line style="stroke:#A80036;stroke-width:1.5;" x1="1660.5" x2="2033.5" y1="836" y2="836"/><polygon fill="none" points="1670.5,843,1666.5,849,1674.5,849" style="stroke:#1963A0;stroke-width:1.0;"/><text fill="#000000" font-family="sans-serif" font-size="11" lengthAdjust="spacing" textLength="77" x="1679.5" y="850.2104">name : String</text><polygon fill="none" points="1670.5,854.8047,1674.5,858.8047,1670.5,862.8047,1666.5,858.8047" style="stroke:#B38D22;stroke-width:1.0;"/><text fill="#000000" font-family="sans-serif" font-size="11" lengthAdjust="spacing" textLength="78" x="1679.5" y="863.0151">breed : String</text><polygon fill="none" points="1670.5,868.6094,1666.5,874.6094,1674.5,874.6094" style="stroke:#1963A0;stroke-width:1.0;"/><text fill="#000000" font-family="sans-serif" font-size="11" lengthAdjust="spacing" textLength="129" x="1679.5" y="875.8198">favoriteFoods : String[]</text><rect fill="none" height="6" style="stroke:#C82930;stroke-width:1.0;" width="6" x="1667.5" y="882.4141"/><text fill="#000000" font-family="sans-serif" font-size="11" lengthAdjust="spacing" textLength="78" x="1679.5" y="888.6245">health : Need</text><rect fill="none" height="6" style="stroke:#C82930;stroke-width:1.0;" width="6" x="1667.5" y="895.2188"/><text fill="#000000" font-family="sans-serif" font-size="11" lengthAdjust="spacing" textLength="85" x="1679.5" y="901.4292">alive : boolean</text><rect fill="none" height="6" style="stroke:#C82930;stroke-width:1.0;" width="6" x="1667.5" y="908.0234"/><text fill="#000000" font-family="sans-serif" font-size="11" lengthAdjust="spacing" textLength="76" x="1679.5" y="914.2339">mood : String</text><rect fill="none" height="6" style="stroke:#C82930;stroke-width:1.0;" width="6" x="1667.5" y="920.8281"/><text fill="#000000" font-family="sans-serif" font-size="11" lengthAdjust="spacing" textLength="83" x="1679.5" y="927.0386">energy : Need</text><rect fill="none" height="6" style="stroke:#C82930;stroke-width:1.0;" width="6" x="1667.5" y="933.6328"/><text fill="#000000" font-family="sans-serif" font-size="11" lengthAdjust="spacing" textLength="82" x="1679.5" y="939.8433">hunger : Need</text><rect fill="none" height="6" style="stroke:#C82930;stroke-width:1.0;" width="6" x="1667.5" y="946.4375"/><text fill="#000000" font-family="sans-serif" font-size="11" lengthAdjust="spacing" textLength="106" x="1679.5" y="952.6479">cleanliness : Need</text><rect fill="none" height="6" style="stroke:#C82930;stroke-width:1.0;" width="6" x="1667.5" y="959.2422"/><text fill="#000000" font-family="sans-serif" font-size="11" lengthAdjust="spacing" textLength="100" x="1679.5" y="965.4526">happiness : Need</text><polygon fill="none" points="1670.5,971.0469,1666.5,977.0469,1674.5,977.0469" style="stroke:#1963A0;stroke-width:1.0;"/><text fill="#000000" font-family="sans-serif" font-size="11" lengthAdjust="spacing" textLength="177" x="1679.5" y="978.2573">CRITICAL_THRESHOLD : integer</text><polygon fill="none" points="1670.5,982.8516,1674.5,986.8516,1670.5,990.8516,1666.5,986.8516" style="stroke:#B38D22;stroke-width:1.0;"/><text fill="#000000" font-family="sans-serif" font-size="11" lengthAdjust="spacing" textLength="349" x="1679.5" y="991.062">needs : Need[] = { energy, hunger, cleanliness, happiness }</text><line style="stroke:#A80036;stroke-width:1.0;" x1="1660.5" x2="2033.5" y1="997.6563" y2="997.6563"/><ellipse cx="1670.5" cy="1008.6563" fill="#84BE84" rx="3" ry="3" style="stroke:#038048;stroke-width:1.0;"/><text fill="#000000" font-family="sans-serif" font-size="11" lengthAdjust="spacing" textLength="221" x="1679.5" y="1011.8667">Tamagotchi(String name) : Tamagotchi</text><ellipse cx="1670.5" cy="1021.4609" fill="#84BE84" rx="3" ry="3" style="stroke:#038048;stroke-width:1.0;"/><text fill="#000000" font-family="sans-serif" font-size="11" lengthAdjust="spacing" textLength="151" x="1679.5" y="1024.6714">Tamagotchi() : Tamagotchi</text><ellipse cx="1670.5" cy="1034.2656" fill="#84BE84" rx="3" ry="3" style="stroke:#038048;stroke-width:1.0;"/><text fill="#000000" font-family="sans-serif" font-size="11" lengthAdjust="spacing" textLength="130" x="1679.5" y="1037.4761">scanCritical() : Boolean</text><ellipse cx="1670.5" cy="1047.0703" fill="#84BE84" rx="3" ry="3" style="stroke:#038048;stroke-width:1.0;"/><text fill="#000000" font-family="sans-serif" font-size="11" lengthAdjust="spacing" textLength="125" x="1679.5" y="1050.2808">depleteNeeds() : void</text><ellipse cx="1670.5" cy="1059.875" fill="#84BE84" rx="3" ry="3" style="stroke:#038048;stroke-width:1.0;"/><text fill="#000000" font-family="sans-serif" font-size="11" lengthAdjust="spacing" textLength="132" x="1679.5" y="1063.0854">setDefaultStats() : void</text><line style="stroke:#A80036;stroke-width:1.0;" x1="1660.5" x2="2033.5" y1="1069.6797" y2="1069.6797"/><ellipse cx="1670.5" cy="1080.6797" fill="#84BE84" rx="3" ry="3" style="stroke:#038048;stroke-width:1.0;"/><text fill="#000000" font-family="sans-serif" font-size="11" lengthAdjust="spacing" textLength="105" x="1679.5" y="1083.8901">getName() : String</text><ellipse cx="1670.5" cy="1093.4844" fill="#84BE84" rx="3" ry="3" style="stroke:#038048;stroke-width:1.0;"/><text fill="#000000" font-family="sans-serif" font-size="11" lengthAdjust="spacing" textLength="190" x="1679.5" y="1096.6948">setName(String newName) : void</text><line style="stroke:#A80036;stroke-width:1.0;" x1="1660.5" x2="2033.5" y1="1103.2891" y2="1103.2891"/><ellipse cx="1670.5" cy="1114.2891" fill="#84BE84" rx="3" ry="3" style="stroke:#038048;stroke-width:1.0;"/><text fill="#000000" font-family="sans-serif" font-size="11" lengthAdjust="spacing" textLength="106" x="1679.5" y="1117.4995">getBreed() : String</text><ellipse cx="1670.5" cy="1127.0938" fill="#84BE84" rx="3" ry="3" style="stroke:#038048;stroke-width:1.0;"/><text fill="#000000" font-family="sans-serif" font-size="11" lengthAdjust="spacing" textLength="169" x="1679.5" y="1130.3042">setBreed(newBreed : int)void</text><line style="stroke:#A80036;stroke-width:1.0;" x1="1660.5" x2="2033.5" y1="1136.8984" y2="1136.8984"/><ellipse cx="1670.5" cy="1147.8984" fill="#84BE84" rx="3" ry="3" style="stroke:#038048;stroke-width:1.0;"/><text fill="#000000" font-family="sans-serif" font-size="11" lengthAdjust="spacing" textLength="98" x="1679.5" y="1151.1089">evalMood() : void</text><ellipse cx="1670.5" cy="1160.7031" fill="#84BE84" rx="3" ry="3" style="stroke:#038048;stroke-width:1.0;"/><text fill="#000000" font-family="sans-serif" font-size="11" lengthAdjust="spacing" textLength="101" x="1679.5" y="1163.9136">getMood() : String</text><ellipse cx="1670.5" cy="1173.5078" fill="#84BE84" rx="3" ry="3" style="stroke:#038048;stroke-width:1.0;"/><text fill="#000000" font-family="sans-serif" font-size="11" lengthAdjust="spacing" textLength="189" x="1679.5" y="1176.7183">setMood(newMood : String) : void</text><line style="stroke:#A80036;stroke-width:1.0;" x1="1660.5" x2="2033.5" y1="1183.3125" y2="1183.3125"/><ellipse cx="1670.5" cy="1194.3125" fill="#84BE84" rx="3" ry="3" style="stroke:#038048;stroke-width:1.0;"/><text fill="#000000" font-family="sans-serif" font-size="11" lengthAdjust="spacing" textLength="113" x="1679.5" y="1197.5229">checkHealth() : void</text><ellipse cx="1670.5" cy="1207.1172" fill="#84BE84" rx="3" ry="3" style="stroke:#038048;stroke-width:1.0;"/><text fill="#000000" font-family="sans-serif" font-size="11" lengthAdjust="spacing" textLength="58" x="1679.5" y="1210.3276">kill() : void</text><ellipse cx="1670.5" cy="1219.9219" fill="#84BE84" rx="3" ry="3" style="stroke:#038048;stroke-width:1.0;"/><text fill="#000000" font-family="sans-serif" font-size="11" lengthAdjust="spacing" textLength="130" x="1679.5" y="1223.1323">hurt(int damage) : void</text><ellipse cx="1670.5" cy="1232.7266" fill="#84BE84" rx="3" ry="3" style="stroke:#038048;stroke-width:1.0;"/><text fill="#000000" font-family="sans-serif" font-size="11" lengthAdjust="spacing" textLength="144" x="1679.5" y="1235.937">heal(int healValue) : void</text><ellipse cx="1670.5" cy="1245.5313" fill="#84BE84" rx="3" ry="3" style="stroke:#038048;stroke-width:1.0;"/><text fill="#000000" font-family="sans-serif" font-size="11" lengthAdjust="spacing" textLength="177" x="1679.5" y="1248.7417">setHealth(int newHealth) : void</text><ellipse cx="1670.5" cy="1258.3359" fill="#84BE84" rx="3" ry="3" style="stroke:#038048;stroke-width:1.0;"/><text fill="#000000" font-family="sans-serif" font-size="11" lengthAdjust="spacing" textLength="106" x="1679.5" y="1261.5464">boolean getAlive()</text><ellipse cx="1670.5" cy="1271.1406" fill="#84BE84" rx="3" ry="3" style="stroke:#038048;stroke-width:1.0;"/><text fill="#000000" font-family="sans-serif" font-size="11" lengthAdjust="spacing" textLength="161" x="1679.5" y="1274.3511">void setAlive(boolean alive)</text><text fill="#000000" font-family="sans-serif" font-size="11" lengthAdjust="spacing" textLength="0" x="1683.5" y="1287.1558"/><!--MD5=[454ed48f055567edc734f170f61b4daf]
class Dog--><rect codeLine="40" fill="#FEFECE" filter="url(#f58g3z0k5qq13)" height="60.8047" id="Dog" style="stroke:#A80036;stroke-width:1.5;" width="134" x="1693" y="1418"/><ellipse cx="1743.25" cy="1434" fill="#ADD1B2" rx="11" ry="11" style="stroke:#A80036;stroke-width:1.0;"/><path d="M1745.5938,1429.6719 C1744.6563,1429.2344 1744.0625,1429.0938 1743.1875,1429.0938 C1740.5625,1429.0938 1738.5625,1431.1719 1738.5625,1433.8906 L1738.5625,1435.0156 C1738.5625,1437.5938 1740.6719,1439.4844 1743.5625,1439.4844 C1744.7813,1439.4844 1745.9375,1439.1875 1746.6875,1438.6406 C1747.2656,1438.2344 1747.5938,1437.7813 1747.5938,1437.3906 C1747.5938,1436.9375 1747.2031,1436.5469 1746.7344,1436.5469 C1746.5156,1436.5469 1746.3125,1436.625 1746.125,1436.8125 C1745.6719,1437.2969 1745.6719,1437.2969 1745.4844,1437.3906 C1745.0625,1437.6563 1744.375,1437.7813 1743.6094,1437.7813 C1741.5625,1437.7813 1740.2656,1436.6875 1740.2656,1434.9844 L1740.2656,1433.8906 C1740.2656,1432.1094 1741.5156,1430.7969 1743.25,1430.7969 C1743.8281,1430.7969 1744.4375,1430.9531 1744.9063,1431.2031 C1745.3906,1431.4844 1745.5625,1431.7031 1745.6563,1432.1094 C1745.7188,1432.5156 1745.75,1432.6406 1745.8906,1432.7656 C1746.0313,1432.9063 1746.2656,1433.0156 1746.4844,1433.0156 C1746.75,1433.0156 1747.0156,1432.875 1747.1875,1432.6563 C1747.2969,1432.5 1747.3281,1432.3125 1747.3281,1431.8906 L1747.3281,1430.4688 C1747.3281,1430.0313 1747.3125,1429.9063 1747.2188,1429.75 C1747.0625,1429.4844 1746.7813,1429.3438 1746.4844,1429.3438 C1746.1875,1429.3438 1745.9844,1429.4375 1745.7656,1429.75 L1745.5938,1429.6719 Z " fill="#000000"/><text fill="#000000" font-family="sans-serif" font-size="12" lengthAdjust="spacing" textLength="25" x="1763.75" y="1438.1543">Dog</text><line style="stroke:#A80036;stroke-width:1.5;" x1="1694" x2="1826" y1="1450" y2="1450"/><line style="stroke:#A80036;stroke-width:1.5;" x1="1694" x2="1826" y1="1458" y2="1458"/><ellipse cx="1704" cy="1469" fill="#84BE84" rx="3" ry="3" style="stroke:#038048;stroke-width:1.0;"/><text fill="#000000" font-family="sans-serif" font-size="11" lengthAdjust="spacing" textLength="108" x="1713" y="1472.2104">Dog(name : String)</text><!--MD5=[60fb4f72b7635aa97affd2efc062a79f]
class Robot--><rect codeLine="45" fill="#FEFECE" filter="url(#f58g3z0k5qq13)" height="60.8047" id="Robot" style="stroke:#A80036;stroke-width:1.5;" width="143" x="1862.5" y="1418"/><ellipse cx="1912.25" cy="1434" fill="#ADD1B2" rx="11" ry="11" style="stroke:#A80036;stroke-width:1.0;"/><path d="M1914.5938,1429.6719 C1913.6563,1429.2344 1913.0625,1429.0938 1912.1875,1429.0938 C1909.5625,1429.0938 1907.5625,1431.1719 1907.5625,1433.8906 L1907.5625,1435.0156 C1907.5625,1437.5938 1909.6719,1439.4844 1912.5625,1439.4844 C1913.7813,1439.4844 1914.9375,1439.1875 1915.6875,1438.6406 C1916.2656,1438.2344 1916.5938,1437.7813 1916.5938,1437.3906 C1916.5938,1436.9375 1916.2031,1436.5469 1915.7344,1436.5469 C1915.5156,1436.5469 1915.3125,1436.625 1915.125,1436.8125 C1914.6719,1437.2969 1914.6719,1437.2969 1914.4844,1437.3906 C1914.0625,1437.6563 1913.375,1437.7813 1912.6094,1437.7813 C1910.5625,1437.7813 1909.2656,1436.6875 1909.2656,1434.9844 L1909.2656,1433.8906 C1909.2656,1432.1094 1910.5156,1430.7969 1912.25,1430.7969 C1912.8281,1430.7969 1913.4375,1430.9531 1913.9063,1431.2031 C1914.3906,1431.4844 1914.5625,1431.7031 1914.6563,1432.1094 C1914.7188,1432.5156 1914.75,1432.6406 1914.8906,1432.7656 C1915.0313,1432.9063 1915.2656,1433.0156 1915.4844,1433.0156 C1915.75,1433.0156 1916.0156,1432.875 1916.1875,1432.6563 C1916.2969,1432.5 1916.3281,1432.3125 1916.3281,1431.8906 L1916.3281,1430.4688 C1916.3281,1430.0313 1916.3125,1429.9063 1916.2188,1429.75 C1916.0625,1429.4844 1915.7813,1429.3438 1915.4844,1429.3438 C1915.1875,1429.3438 1914.9844,1429.4375 1914.7656,1429.75 L1914.5938,1429.6719 Z " fill="#000000"/><text fill="#000000" font-family="sans-serif" font-size="12" lengthAdjust="spacing" textLength="35" x="1932.75" y="1438.1543">Robot</text><line style="stroke:#A80036;stroke-width:1.5;" x1="1863.5" x2="2004.5" y1="1450" y2="1450"/><line style="stroke:#A80036;stroke-width:1.5;" x1="1863.5" x2="2004.5" y1="1458" y2="1458"/><ellipse cx="1873.5" cy="1469" fill="#84BE84" rx="3" ry="3" style="stroke:#038048;stroke-width:1.0;"/><text fill="#000000" font-family="sans-serif" font-size="11" lengthAdjust="spacing" textLength="117" x="1882.5" y="1472.2104">Robot(name : String)</text><!--MD5=[ff16b79ca4e34ef4da15c1b30759c29a]
class Sheep--><rect codeLine="50" fill="#FEFECE" filter="url(#f58g3z0k5qq13)" height="60.8047" id="Sheep" style="stroke:#A80036;stroke-width:1.5;" width="149" x="2040.5" y="1418"/><ellipse cx="2091.25" cy="1434" fill="#ADD1B2" rx="11" ry="11" style="stroke:#A80036;stroke-width:1.0;"/><path d="M2093.5938,1429.6719 C2092.6563,1429.2344 2092.0625,1429.0938 2091.1875,1429.0938 C2088.5625,1429.0938 2086.5625,1431.1719 2086.5625,1433.8906 L2086.5625,1435.0156 C2086.5625,1437.5938 2088.6719,1439.4844 2091.5625,1439.4844 C2092.7813,1439.4844 2093.9375,1439.1875 2094.6875,1438.6406 C2095.2656,1438.2344 2095.5938,1437.7813 2095.5938,1437.3906 C2095.5938,1436.9375 2095.2031,1436.5469 2094.7344,1436.5469 C2094.5156,1436.5469 2094.3125,1436.625 2094.125,1436.8125 C2093.6719,1437.2969 2093.6719,1437.2969 2093.4844,1437.3906 C2093.0625,1437.6563 2092.375,1437.7813 2091.6094,1437.7813 C2089.5625,1437.7813 2088.2656,1436.6875 2088.2656,1434.9844 L2088.2656,1433.8906 C2088.2656,1432.1094 2089.5156,1430.7969 2091.25,1430.7969 C2091.8281,1430.7969 2092.4375,1430.9531 2092.9063,1431.2031 C2093.3906,1431.4844 2093.5625,1431.7031 2093.6563,1432.1094 C2093.7188,1432.5156 2093.75,1432.6406 2093.8906,1432.7656 C2094.0313,1432.9063 2094.2656,1433.0156 2094.4844,1433.0156 C2094.75,1433.0156 2095.0156,1432.875 2095.1875,1432.6563 C2095.2969,1432.5 2095.3281,1432.3125 2095.3281,1431.8906 L2095.3281,1430.4688 C2095.3281,1430.0313 2095.3125,1429.9063 2095.2188,1429.75 C2095.0625,1429.4844 2094.7813,1429.3438 2094.4844,1429.3438 C2094.1875,1429.3438 2093.9844,1429.4375 2093.7656,1429.75 L2093.5938,1429.6719 Z " fill="#000000"/><text fill="#000000" font-family="sans-serif" font-size="12" lengthAdjust="spacing" textLength="39" x="2111.75" y="1438.1543">Sheep</text><line style="stroke:#A80036;stroke-width:1.5;" x1="2041.5" x2="2188.5" y1="1450" y2="1450"/><line style="stroke:#A80036;stroke-width:1.5;" x1="2041.5" x2="2188.5" y1="1458" y2="1458"/><ellipse cx="2051.5" cy="1469" fill="#84BE84" rx="3" ry="3" style="stroke:#038048;stroke-width:1.0;"/><text fill="#000000" font-family="sans-serif" font-size="11" lengthAdjust="spacing" textLength="123" x="2060.5" y="1472.2104">Sheep(name : String)</text><!--MD5=[5b4460e97222b45c9cf25eacd4639dbc]
class Food--><rect codeLine="57" fill="#FEFECE" filter="url(#f58g3z0k5qq13)" height="86.4141" id="Food" style="stroke:#A80036;stroke-width:1.5;" width="180" x="2070" y="1006"/><ellipse cx="2140.25" cy="1022" fill="#ADD1B2" rx="11" ry="11" style="stroke:#A80036;stroke-width:1.0;"/><path d="M2142.5938,1017.6719 C2141.6563,1017.2344 2141.0625,1017.0938 2140.1875,1017.0938 C2137.5625,1017.0938 2135.5625,1019.1719 2135.5625,1021.8906 L2135.5625,1023.0156 C2135.5625,1025.5938 2137.6719,1027.4844 2140.5625,1027.4844 C2141.7813,1027.4844 2142.9375,1027.1875 2143.6875,1026.6406 C2144.2656,1026.2344 2144.5938,1025.7813 2144.5938,1025.3906 C2144.5938,1024.9375 2144.2031,1024.5469 2143.7344,1024.5469 C2143.5156,1024.5469 2143.3125,1024.625 2143.125,1024.8125 C2142.6719,1025.2969 2142.6719,1025.2969 2142.4844,1025.3906 C2142.0625,1025.6563 2141.375,1025.7813 2140.6094,1025.7813 C2138.5625,1025.7813 2137.2656,1024.6875 2137.2656,1022.9844 L2137.2656,1021.8906 C2137.2656,1020.1094 2138.5156,1018.7969 2140.25,1018.7969 C2140.8281,1018.7969 2141.4375,1018.9531 2141.9063,1019.2031 C2142.3906,1019.4844 2142.5625,1019.7031 2142.6563,1020.1094 C2142.7188,1020.5156 2142.75,1020.6406 2142.8906,1020.7656 C2143.0313,1020.9063 2143.2656,1021.0156 2143.4844,1021.0156 C2143.75,1021.0156 2144.0156,1020.875 2144.1875,1020.6563 C2144.2969,1020.5 2144.3281,1020.3125 2144.3281,1019.8906 L2144.3281,1018.4688 C2144.3281,1018.0313 2144.3125,1017.9063 2144.2188,1017.75 C2144.0625,1017.4844 2143.7813,1017.3438 2143.4844,1017.3438 C2143.1875,1017.3438 2142.9844,1017.4375 2142.7656,1017.75 L2142.5938,1017.6719 Z " fill="#000000"/><text fill="#000000" font-family="sans-serif" font-size="12" lengthAdjust="spacing" textLength="31" x="2160.75" y="1026.1543">Food</text><line style="stroke:#A80036;stroke-width:1.5;" x1="2071" x2="2249" y1="1038" y2="1038"/><rect fill="none" height="6" style="stroke:#C82930;stroke-width:1.0;" width="6" x="2078" y="1046"/><text fill="#000000" font-family="sans-serif" font-size="11" lengthAdjust="spacing" textLength="43" x="2090" y="1052.2104">id :   int</text><rect fill="none" height="6" style="stroke:#C82930;stroke-width:1.0;" width="6" x="2078" y="1058.8047"/><text fill="#000000" font-family="sans-serif" font-size="11" lengthAdjust="spacing" textLength="77" x="2090" y="1065.0151">name : String</text><line style="stroke:#A80036;stroke-width:1.0;" x1="2071" x2="2249" y1="1071.6094" y2="1071.6094"/><ellipse cx="2081" cy="1082.6094" fill="#84BE84" rx="3" ry="3" style="stroke:#038048;stroke-width:1.0;"/><text fill="#000000" font-family="sans-serif" font-size="11" lengthAdjust="spacing" textLength="154" x="2090" y="1085.8198">Food(id : int, name : String)</text><!--MD5=[0b6f8c5a3aeecb178d61c5966e6e45f4]
class Need--><rect codeLine="66" fill="#FEFECE" filter="url(#f58g3z0k5qq13)" height="188.8516" id="Need" style="stroke:#A80036;stroke-width:1.5;" width="381" x="2224.5" y="1354"/><ellipse cx="2394.75" cy="1370" fill="#ADD1B2" rx="11" ry="11" style="stroke:#A80036;stroke-width:1.0;"/><path d="M2397.0938,1365.6719 C2396.1563,1365.2344 2395.5625,1365.0938 2394.6875,1365.0938 C2392.0625,1365.0938 2390.0625,1367.1719 2390.0625,1369.8906 L2390.0625,1371.0156 C2390.0625,1373.5938 2392.1719,1375.4844 2395.0625,1375.4844 C2396.2813,1375.4844 2397.4375,1375.1875 2398.1875,1374.6406 C2398.7656,1374.2344 2399.0938,1373.7813 2399.0938,1373.3906 C2399.0938,1372.9375 2398.7031,1372.5469 2398.2344,1372.5469 C2398.0156,1372.5469 2397.8125,1372.625 2397.625,1372.8125 C2397.1719,1373.2969 2397.1719,1373.2969 2396.9844,1373.3906 C2396.5625,1373.6563 2395.875,1373.7813 2395.1094,1373.7813 C2393.0625,1373.7813 2391.7656,1372.6875 2391.7656,1370.9844 L2391.7656,1369.8906 C2391.7656,1368.1094 2393.0156,1366.7969 2394.75,1366.7969 C2395.3281,1366.7969 2395.9375,1366.9531 2396.4063,1367.2031 C2396.8906,1367.4844 2397.0625,1367.7031 2397.1563,1368.1094 C2397.2188,1368.5156 2397.25,1368.6406 2397.3906,1368.7656 C2397.5313,1368.9063 2397.7656,1369.0156 2397.9844,1369.0156 C2398.25,1369.0156 2398.5156,1368.875 2398.6875,1368.6563 C2398.7969,1368.5 2398.8281,1368.3125 2398.8281,1367.8906 L2398.8281,1366.4688 C2398.8281,1366.0313 2398.8125,1365.9063 2398.7188,1365.75 C2398.5625,1365.4844 2398.2813,1365.3438 2397.9844,1365.3438 C2397.6875,1365.3438 2397.4844,1365.4375 2397.2656,1365.75 L2397.0938,1365.6719 Z " fill="#000000"/><text fill="#000000" font-family="sans-serif" font-size="12" lengthAdjust="spacing" textLength="32" x="2415.25" y="1374.1543">Need</text><line style="stroke:#A80036;stroke-width:1.5;" x1="2225.5" x2="2604.5" y1="1386" y2="1386"/><polygon fill="none" points="2235.5,1393,2231.5,1399,2239.5,1399" style="stroke:#1963A0;stroke-width:1.0;"/><text fill="#000000" font-family="sans-serif" font-size="11" lengthAdjust="spacing" textLength="77" x="2244.5" y="1400.2104">name : String</text><polygon fill="none" points="2235.5,1405.8047,2231.5,1411.8047,2239.5,1411.8047" style="stroke:#1963A0;stroke-width:1.0;"/><text fill="#000000" font-family="sans-serif" font-size="11" lengthAdjust="spacing" textLength="57" x="2244.5" y="1413.0151">value : int</text><polygon fill="none" points="2235.5,1418.6094,2231.5,1424.6094,2239.5,1424.6094" style="stroke:#1963A0;stroke-width:1.0;"/><text fill="#000000" font-family="sans-serif" font-size="11" lengthAdjust="spacing" textLength="68" x="2244.5" y="1425.8198">factor : float</text><polygon fill="none" points="2235.5,1431.4141,2231.5,1437.4141,2239.5,1437.4141" style="stroke:#1963A0;stroke-width:1.0;"/><text fill="#000000" font-family="sans-serif" font-size="11" lengthAdjust="spacing" textLength="93" x="2244.5" y="1438.6245">critical : boolean</text><line style="stroke:#A80036;stroke-width:1.0;" x1="2225.5" x2="2604.5" y1="1445.2188" y2="1445.2188"/><polygon fill="#4177AF" points="2235.5,1452.2188,2231.5,1458.2188,2239.5,1458.2188" style="stroke:#1963A0;stroke-width:1.0;"/><text fill="#000000" font-family="sans-serif" font-size="11" lengthAdjust="spacing" textLength="355" x="2244.5" y="1459.4292">Need(name : String, value : int, factor : float, critical : boolean)</text><polygon fill="#4177AF" points="2235.5,1465.0234,2231.5,1471.0234,2239.5,1471.0234" style="stroke:#1963A0;stroke-width:1.0;"/><text fill="#000000" font-family="sans-serif" font-size="11" lengthAdjust="spacing" textLength="183" x="2244.5" y="1472.2339">calcDepletion(time : float) : void</text><polygon fill="#4177AF" points="2235.5,1477.8281,2231.5,1483.8281,2239.5,1483.8281" style="stroke:#1963A0;stroke-width:1.0;"/><text fill="#000000" font-family="sans-serif" font-size="11" lengthAdjust="spacing" textLength="136" x="2244.5" y="1485.0386">setVal(value : int) : void</text><ellipse cx="2235.5" cy="1494.6328" fill="#84BE84" rx="3" ry="3" style="stroke:#038048;stroke-width:1.0;"/><text fill="#000000" font-family="sans-serif" font-size="11" lengthAdjust="spacing" textLength="163" x="2244.5" y="1497.8433">setFactor(factor : float) : void</text><ellipse cx="2235.5" cy="1507.4375" fill="#84BE84" rx="3" ry="3" style="stroke:#038048;stroke-width:1.0;"/><text fill="#000000" font-family="sans-serif" font-size="11" lengthAdjust="spacing" textLength="70" x="2244.5" y="1510.6479">getVal() : int</text><text fill="#000000" font-family="sans-serif" font-size="11" lengthAdjust="spacing" textLength="0" x="2248.5" y="1523.4526"/><text fill="#000000" font-family="sans-serif" font-size="11" lengthAdjust="spacing" textLength="0" x="2248.5" y="1536.2573"/><!--MD5=[ebecb9917226677787fac7e9a2731304]
class GameManager--><rect codeLine="127" fill="#FEFECE" filter="url(#f58g3z0k5qq13)" height="99.2188" id="GameManager" style="stroke:#A80036;stroke-width:1.5;" width="241" x="2662.5" y="642.5"/><ellipse cx="2735.25" cy="658.5" fill="#ADD1B2" rx="11" ry="11" style="stroke:#A80036;stroke-width:1.0;"/><path d="M2737.5938,654.1719 C2736.6563,653.7344 2736.0625,653.5938 2735.1875,653.5938 C2732.5625,653.5938 2730.5625,655.6719 2730.5625,658.3906 L2730.5625,659.5156 C2730.5625,662.0938 2732.6719,663.9844 2735.5625,663.9844 C2736.7813,663.9844 2737.9375,663.6875 2738.6875,663.1406 C2739.2656,662.7344 2739.5938,662.2813 2739.5938,661.8906 C2739.5938,661.4375 2739.2031,661.0469 2738.7344,661.0469 C2738.5156,661.0469 2738.3125,661.125 2738.125,661.3125 C2737.6719,661.7969 2737.6719,661.7969 2737.4844,661.8906 C2737.0625,662.1563 2736.375,662.2813 2735.6094,662.2813 C2733.5625,662.2813 2732.2656,661.1875 2732.2656,659.4844 L2732.2656,658.3906 C2732.2656,656.6094 2733.5156,655.2969 2735.25,655.2969 C2735.8281,655.2969 2736.4375,655.4531 2736.9063,655.7031 C2737.3906,655.9844 2737.5625,656.2031 2737.6563,656.6094 C2737.7188,657.0156 2737.75,657.1406 2737.8906,657.2656 C2738.0313,657.4063 2738.2656,657.5156 2738.4844,657.5156 C2738.75,657.5156 2739.0156,657.375 2739.1875,657.1563 C2739.2969,657 2739.3281,656.8125 2739.3281,656.3906 L2739.3281,654.9688 C2739.3281,654.5313 2739.3125,654.4063 2739.2188,654.25 C2739.0625,653.9844 2738.7813,653.8438 2738.4844,653.8438 C2738.1875,653.8438 2737.9844,653.9375 2737.7656,654.25 L2737.5938,654.1719 Z " fill="#000000"/><text fill="#000000" font-family="sans-serif" font-size="12" lengthAdjust="spacing" textLength="87" x="2755.75" y="662.6543">GameManager</text><line style="stroke:#A80036;stroke-width:1.5;" x1="2663.5" x2="2902.5" y1="674.5" y2="674.5"/><polygon fill="none" points="2673.5,680.5,2677.5,684.5,2673.5,688.5,2669.5,684.5" style="stroke:#B38D22;stroke-width:1.0;"/><text fill="#000000" font-family="sans-serif" font-size="11" lengthAdjust="spacing" textLength="215" x="2682.5" y="688.7104">saveLocation : String = "../saveData/"</text><ellipse cx="2673.5" cy="698.3047" rx="3" ry="3" style="stroke:#038048;stroke-width:1.0;fill:none;"/><text fill="#000000" font-family="sans-serif" font-size="11" lengthAdjust="spacing" textLength="103" x="2682.5" y="701.5151">saver gameSaver</text><ellipse cx="2673.5" cy="711.1094" rx="3" ry="3" style="stroke:#038048;stroke-width:1.0;fill:none;"/><text fill="#000000" font-family="sans-serif" font-size="11" lengthAdjust="spacing" textLength="112" x="2682.5" y="714.3198">loader gameLoader</text><line style="stroke:#A80036;stroke-width:1.0;" x1="2663.5" x2="2902.5" y1="720.9141" y2="720.9141"/><ellipse cx="2673.5" cy="731.9141" fill="#84BE84" rx="3" ry="3" style="stroke:#038048;stroke-width:1.0;"/><text fill="#000000" font-family="sans-serif" font-size="11" lengthAdjust="spacing" textLength="92" x="2682.5" y="735.1245">GameManager()</text><!--MD5=[951bde26c2b1cb89e8244808190f6362]
class GameSaver--><rect codeLine="136" fill="#FEFECE" filter="url(#f58g3z0k5qq13)" height="60.8047" id="GameSaver" style="stroke:#A80036;stroke-width:1.5;" width="210" x="2662" y="1018.5"/><ellipse cx="2727.75" cy="1034.5" fill="#ADD1B2" rx="11" ry="11" style="stroke:#A80036;stroke-width:1.0;"/><path d="M2730.0938,1030.1719 C2729.1563,1029.7344 2728.5625,1029.5938 2727.6875,1029.5938 C2725.0625,1029.5938 2723.0625,1031.6719 2723.0625,1034.3906 L2723.0625,1035.5156 C2723.0625,1038.0938 2725.1719,1039.9844 2728.0625,1039.9844 C2729.2813,1039.9844 2730.4375,1039.6875 2731.1875,1039.1406 C2731.7656,1038.7344 2732.0938,1038.2813 2732.0938,1037.8906 C2732.0938,1037.4375 2731.7031,1037.0469 2731.2344,1037.0469 C2731.0156,1037.0469 2730.8125,1037.125 2730.625,1037.3125 C2730.1719,1037.7969 2730.1719,1037.7969 2729.9844,1037.8906 C2729.5625,1038.1563 2728.875,1038.2813 2728.1094,1038.2813 C2726.0625,1038.2813 2724.7656,1037.1875 2724.7656,1035.4844 L2724.7656,1034.3906 C2724.7656,1032.6094 2726.0156,1031.2969 2727.75,1031.2969 C2728.3281,1031.2969 2728.9375,1031.4531 2729.4063,1031.7031 C2729.8906,1031.9844 2730.0625,1032.2031 2730.1563,1032.6094 C2730.2188,1033.0156 2730.25,1033.1406 2730.3906,1033.2656 C2730.5313,1033.4063 2730.7656,1033.5156 2730.9844,1033.5156 C2731.25,1033.5156 2731.5156,1033.375 2731.6875,1033.1563 C2731.7969,1033 2731.8281,1032.8125 2731.8281,1032.3906 L2731.8281,1030.9688 C2731.8281,1030.5313 2731.8125,1030.4063 2731.7188,1030.25 C2731.5625,1029.9844 2731.2813,1029.8438 2730.9844,1029.8438 C2730.6875,1029.8438 2730.4844,1029.9375 2730.2656,1030.25 L2730.0938,1030.1719 Z " fill="#000000"/><text fill="#000000" font-family="sans-serif" font-size="12" lengthAdjust="spacing" textLength="70" x="2748.25" y="1038.6543">GameSaver</text><line style="stroke:#A80036;stroke-width:1.5;" x1="2663" x2="2871" y1="1050.5" y2="1050.5"/><line style="stroke:#A80036;stroke-width:1.5;" x1="2663" x2="2871" y1="1058.5" y2="1058.5"/><ellipse cx="2673" cy="1069.5" fill="#84BE84" rx="3" ry="3" style="stroke:#038048;stroke-width:1.0;"/><text fill="#000000" font-family="sans-serif" font-size="11" lengthAdjust="spacing" textLength="184" x="2682" y="1072.7104">save(game : GameModel) : void</text><!--MD5=[e1fa837ce0d6eae14ff00c0c29f3db8d]
class GameLoader--><rect codeLine="141" fill="#FEFECE" filter="url(#f58g3z0k5qq13)" height="60.8047" id="GameLoader" style="stroke:#A80036;stroke-width:1.5;" width="206" x="2907" y="1018.5"/><ellipse cx="2967.25" cy="1034.5" fill="#ADD1B2" rx="11" ry="11" style="stroke:#A80036;stroke-width:1.0;"/><path d="M2969.5938,1030.1719 C2968.6563,1029.7344 2968.0625,1029.5938 2967.1875,1029.5938 C2964.5625,1029.5938 2962.5625,1031.6719 2962.5625,1034.3906 L2962.5625,1035.5156 C2962.5625,1038.0938 2964.6719,1039.9844 2967.5625,1039.9844 C2968.7813,1039.9844 2969.9375,1039.6875 2970.6875,1039.1406 C2971.2656,1038.7344 2971.5938,1038.2813 2971.5938,1037.8906 C2971.5938,1037.4375 2971.2031,1037.0469 2970.7344,1037.0469 C2970.5156,1037.0469 2970.3125,1037.125 2970.125,1037.3125 C2969.6719,1037.7969 2969.6719,1037.7969 2969.4844,1037.8906 C2969.0625,1038.1563 2968.375,1038.2813 2967.6094,1038.2813 C2965.5625,1038.2813 2964.2656,1037.1875 2964.2656,1035.4844 L2964.2656,1034.3906 C2964.2656,1032.6094 2965.5156,1031.2969 2967.25,1031.2969 C2967.8281,1031.2969 2968.4375,1031.4531 2968.9063,1031.7031 C2969.3906,1031.9844 2969.5625,1032.2031 2969.6563,1032.6094 C2969.7188,1033.0156 2969.75,1033.1406 2969.8906,1033.2656 C2970.0313,1033.4063 2970.2656,1033.5156 2970.4844,1033.5156 C2970.75,1033.5156 2971.0156,1033.375 2971.1875,1033.1563 C2971.2969,1033 2971.3281,1032.8125 2971.3281,1032.3906 L2971.3281,1030.9688 C2971.3281,1030.5313 2971.3125,1030.4063 2971.2188,1030.25 C2971.0625,1029.9844 2970.7813,1029.8438 2970.4844,1029.8438 C2970.1875,1029.8438 2969.9844,1029.9375 2969.7656,1030.25 L2969.5938,1030.1719 Z " fill="#000000"/><text fill="#000000" font-family="sans-serif" font-size="12" lengthAdjust="spacing" textLength="77" x="2987.75" y="1038.6543">GameLoader</text><line style="stroke:#A80036;stroke-width:1.5;" x1="2908" x2="3112" y1="1050.5" y2="1050.5"/><line style="stroke:#A80036;stroke-width:1.5;" x1="2908" x2="3112" y1="1058.5" y2="1058.5"/><ellipse cx="2918" cy="1069.5" fill="#84BE84" rx="3" ry="3" style="stroke:#038048;stroke-width:1.0;"/><text fill="#000000" font-family="sans-serif" font-size="11" lengthAdjust="spacing" textLength="180" x="2927" y="1072.7104">load(game : GameModel) : void</text><!--MD5=[82d9c97a467af7c0b2c072e754b85475]
class GameController--><rect codeLine="157" fill="#FEFECE" filter="url(#f58g3z0k5qq13)" height="124.8281" id="GameController" style="stroke:#A80036;stroke-width:1.5;" width="348" x="1100" y="401"/><ellipse cx="1222.75" cy="417" fill="#ADD1B2" rx="11" ry="11" style="stroke:#A80036;stroke-width:1.0;"/><path d="M1225.0938,412.6719 C1224.1563,412.2344 1223.5625,412.0938 1222.6875,412.0938 C1220.0625,412.0938 1218.0625,414.1719 1218.0625,416.8906 L1218.0625,418.0156 C1218.0625,420.5938 1220.1719,422.4844 1223.0625,422.4844 C1224.2813,422.4844 1225.4375,422.1875 1226.1875,421.6406 C1226.7656,421.2344 1227.0938,420.7813 1227.0938,420.3906 C1227.0938,419.9375 1226.7031,419.5469 1226.2344,419.5469 C1226.0156,419.5469 1225.8125,419.625 1225.625,419.8125 C1225.1719,420.2969 1225.1719,420.2969 1224.9844,420.3906 C1224.5625,420.6563 1223.875,420.7813 1223.1094,420.7813 C1221.0625,420.7813 1219.7656,419.6875 1219.7656,417.9844 L1219.7656,416.8906 C1219.7656,415.1094 1221.0156,413.7969 1222.75,413.7969 C1223.3281,413.7969 1223.9375,413.9531 1224.4063,414.2031 C1224.8906,414.4844 1225.0625,414.7031 1225.1563,415.1094 C1225.2188,415.5156 1225.25,415.6406 1225.3906,415.7656 C1225.5313,415.9063 1225.7656,416.0156 1225.9844,416.0156 C1226.25,416.0156 1226.5156,415.875 1226.6875,415.6563 C1226.7969,415.5 1226.8281,415.3125 1226.8281,414.8906 L1226.8281,413.4688 C1226.8281,413.0313 1226.8125,412.9063 1226.7188,412.75 C1226.5625,412.4844 1226.2813,412.3438 1225.9844,412.3438 C1225.6875,412.3438 1225.4844,412.4375 1225.2656,412.75 L1225.0938,412.6719 Z " fill="#000000"/><text fill="#000000" font-family="sans-serif" font-size="12" lengthAdjust="spacing" textLength="94" x="1243.25" y="421.1543">GameController</text><line style="stroke:#A80036;stroke-width:1.5;" x1="1101" x2="1447" y1="433" y2="433"/><rect fill="none" height="6" style="stroke:#C82930;stroke-width:1.0;" width="6" x="1108" y="441"/><text fill="#000000" font-family="sans-serif" font-size="11" lengthAdjust="spacing" textLength="135" x="1120" y="447.2104">gameView : GameView</text><rect fill="none" height="6" style="stroke:#C82930;stroke-width:1.0;" width="6" x="1108" y="453.8047"/><text fill="#000000" font-family="sans-serif" font-size="11" lengthAdjust="spacing" textLength="147" x="1120" y="460.0151">gameModel : GameModel</text><rect fill="none" height="6" style="stroke:#C82930;stroke-width:1.0;" width="6" x="1108" y="466.6094"/><text fill="#000000" font-family="sans-serif" font-size="11" lengthAdjust="spacing" textLength="171" x="1120" y="472.8198">gameListener : GameListener</text><line style="stroke:#A80036;stroke-width:1.0;" x1="1101" x2="1447" y1="479.4141" y2="479.4141"/><ellipse cx="1111" cy="490.4141" fill="#84BE84" rx="3" ry="3" style="stroke:#038048;stroke-width:1.0;"/><text fill="#000000" font-family="sans-serif" font-size="11" lengthAdjust="spacing" textLength="322" x="1120" y="493.6245">GameController(model : GameModel, view : GameView)</text><ellipse cx="1111" cy="503.2188" fill="#84BE84" rx="3" ry="3" style="stroke:#038048;stroke-width:1.0;"/><text fill="#000000" font-family="sans-serif" font-size="11" lengthAdjust="spacing" textLength="68" x="1120" y="506.4292">start() : void</text><ellipse cx="1111" cy="516.0234" fill="#84BE84" rx="3" ry="3" style="stroke:#038048;stroke-width:1.0;"/><text fill="#000000" font-family="sans-serif" font-size="11" lengthAdjust="spacing" textLength="83" x="1120" y="519.2339">update() : void</text><!--MD5=[607c1b65ce0188fcc154ec537a7c35f9]
class GameListener--><rect codeLine="167" fill="#FEFECE" filter="url(#f58g3z0k5qq13)" height="73.6094" id="GameListener" style="stroke:#A80036;stroke-width:1.5;" width="346" x="1100" y="655"/><ellipse cx="1227.25" cy="671" fill="#ADD1B2" rx="11" ry="11" style="stroke:#A80036;stroke-width:1.0;"/><path d="M1229.5938,666.6719 C1228.6563,666.2344 1228.0625,666.0938 1227.1875,666.0938 C1224.5625,666.0938 1222.5625,668.1719 1222.5625,670.8906 L1222.5625,672.0156 C1222.5625,674.5938 1224.6719,676.4844 1227.5625,676.4844 C1228.7813,676.4844 1229.9375,676.1875 1230.6875,675.6406 C1231.2656,675.2344 1231.5938,674.7813 1231.5938,674.3906 C1231.5938,673.9375 1231.2031,673.5469 1230.7344,673.5469 C1230.5156,673.5469 1230.3125,673.625 1230.125,673.8125 C1229.6719,674.2969 1229.6719,674.2969 1229.4844,674.3906 C1229.0625,674.6563 1228.375,674.7813 1227.6094,674.7813 C1225.5625,674.7813 1224.2656,673.6875 1224.2656,671.9844 L1224.2656,670.8906 C1224.2656,669.1094 1225.5156,667.7969 1227.25,667.7969 C1227.8281,667.7969 1228.4375,667.9531 1228.9063,668.2031 C1229.3906,668.4844 1229.5625,668.7031 1229.6563,669.1094 C1229.7188,669.5156 1229.75,669.6406 1229.8906,669.7656 C1230.0313,669.9063 1230.2656,670.0156 1230.4844,670.0156 C1230.75,670.0156 1231.0156,669.875 1231.1875,669.6563 C1231.2969,669.5 1231.3281,669.3125 1231.3281,668.8906 L1231.3281,667.4688 C1231.3281,667.0313 1231.3125,666.9063 1231.2188,666.75 C1231.0625,666.4844 1230.7813,666.3438 1230.4844,666.3438 C1230.1875,666.3438 1229.9844,666.4375 1229.7656,666.75 L1229.5938,666.6719 Z " fill="#000000"/><text fill="#000000" font-family="sans-serif" font-size="12" lengthAdjust="spacing" textLength="83" x="1247.75" y="675.1543">GameListener</text><line style="stroke:#A80036;stroke-width:1.5;" x1="1101" x2="1445" y1="687" y2="687"/><ellipse cx="1111" cy="698" fill="#84BE84" rx="3" ry="3" style="stroke:#038048;stroke-width:1.0;"/><text fill="#000000" font-family="sans-serif" font-size="11" lengthAdjust="spacing" textLength="313" x="1120" y="701.2104">GameListener(model : GameModel, view : GameView)</text><line style="stroke:#A80036;stroke-width:1.0;" x1="1101" x2="1445" y1="707.8047" y2="707.8047"/><ellipse cx="1111" cy="718.8047" fill="#84BE84" rx="3" ry="3" style="stroke:#038048;stroke-width:1.0;"/><text fill="#000000" font-family="sans-serif" font-size="11" lengthAdjust="spacing" textLength="320" x="1120" y="722.0151">&lt;override&gt; actionperformed(event : ActionEvent) : void</text><!--MD5=[5d3822d29342fbd355d1b65ea3562ec9]
class GameView--><rect codeLine="184" fill="#FEFECE" filter="url(#f58g3z0k5qq13)" height="73.6094" id="GameView" style="stroke:#A80036;stroke-width:1.5;" width="109" x="934.5" y="267"/><ellipse cx="955.35" cy="283" fill="#ADD1B2" rx="11" ry="11" style="stroke:#A80036;stroke-width:1.0;"/><path d="M957.6938,278.6719 C956.7563,278.2344 956.1625,278.0938 955.2875,278.0938 C952.6625,278.0938 950.6625,280.1719 950.6625,282.8906 L950.6625,284.0156 C950.6625,286.5938 952.7719,288.4844 955.6625,288.4844 C956.8813,288.4844 958.0375,288.1875 958.7875,287.6406 C959.3656,287.2344 959.6938,286.7813 959.6938,286.3906 C959.6938,285.9375 959.3031,285.5469 958.8344,285.5469 C958.6156,285.5469 958.4125,285.625 958.225,285.8125 C957.7719,286.2969 957.7719,286.2969 957.5844,286.3906 C957.1625,286.6563 956.475,286.7813 955.7094,286.7813 C953.6625,286.7813 952.3656,285.6875 952.3656,283.9844 L952.3656,282.8906 C952.3656,281.1094 953.6156,279.7969 955.35,279.7969 C955.9281,279.7969 956.5375,279.9531 957.0063,280.2031 C957.4906,280.4844 957.6625,280.7031 957.7563,281.1094 C957.8188,281.5156 957.85,281.6406 957.9906,281.7656 C958.1313,281.9063 958.3656,282.0156 958.5844,282.0156 C958.85,282.0156 959.1156,281.875 959.2875,281.6563 C959.3969,281.5 959.4281,281.3125 959.4281,280.8906 L959.4281,279.4688 C959.4281,279.0313 959.4125,278.9063 959.3188,278.75 C959.1625,278.4844 958.8813,278.3438 958.5844,278.3438 C958.2875,278.3438 958.0844,278.4375 957.8656,278.75 L957.6938,278.6719 Z " fill="#000000"/><text fill="#000000" font-family="sans-serif" font-size="12" lengthAdjust="spacing" textLength="64" x="970.65" y="287.1543">GameView</text><line style="stroke:#A80036;stroke-width:1.5;" x1="935.5" x2="1042.5" y1="299" y2="299"/><line style="stroke:#A80036;stroke-width:1.5;" x1="935.5" x2="1042.5" y1="307" y2="307"/><ellipse cx="945.5" cy="318" fill="#84BE84" rx="3" ry="3" style="stroke:#038048;stroke-width:1.0;"/><text fill="#000000" font-family="sans-serif" font-size="11" lengthAdjust="spacing" textLength="71" x="954.5" y="321.2104">GameView()</text><ellipse cx="945.5" cy="330.8047" fill="#84BE84" rx="3" ry="3" style="stroke:#038048;stroke-width:1.0;"/><text fill="#000000" font-family="sans-serif" font-size="11" lengthAdjust="spacing" textLength="83" x="954.5" y="334.0151">update() : void</text><!--MD5=[da75cb4793a79431f89d81cb3103fccc]
class GameFrame--><rect codeLine="198" fill="#FEFECE" filter="url(#f58g3z0k5qq13)" height="73.6094" id="GameFrame" style="stroke:#A80036;stroke-width:1.5;" width="219" x="80.5" y="426.5"/><ellipse cx="149.25" cy="442.5" fill="#ADD1B2" rx="11" ry="11" style="stroke:#A80036;stroke-width:1.0;"/><path d="M151.5938,438.1719 C150.6563,437.7344 150.0625,437.5938 149.1875,437.5938 C146.5625,437.5938 144.5625,439.6719 144.5625,442.3906 L144.5625,443.5156 C144.5625,446.0938 146.6719,447.9844 149.5625,447.9844 C150.7813,447.9844 151.9375,447.6875 152.6875,447.1406 C153.2656,446.7344 153.5938,446.2813 153.5938,445.8906 C153.5938,445.4375 153.2031,445.0469 152.7344,445.0469 C152.5156,445.0469 152.3125,445.125 152.125,445.3125 C151.6719,445.7969 151.6719,445.7969 151.4844,445.8906 C151.0625,446.1563 150.375,446.2813 149.6094,446.2813 C147.5625,446.2813 146.2656,445.1875 146.2656,443.4844 L146.2656,442.3906 C146.2656,440.6094 147.5156,439.2969 149.25,439.2969 C149.8281,439.2969 150.4375,439.4531 150.9063,439.7031 C151.3906,439.9844 151.5625,440.2031 151.6563,440.6094 C151.7188,441.0156 151.75,441.1406 151.8906,441.2656 C152.0313,441.4063 152.2656,441.5156 152.4844,441.5156 C152.75,441.5156 153.0156,441.375 153.1875,441.1563 C153.2969,441 153.3281,440.8125 153.3281,440.3906 L153.3281,438.9688 C153.3281,438.5313 153.3125,438.4063 153.2188,438.25 C153.0625,437.9844 152.7813,437.8438 152.4844,437.8438 C152.1875,437.8438 151.9844,437.9375 151.7656,438.25 L151.5938,438.1719 Z " fill="#000000"/><text fill="#000000" font-family="sans-serif" font-size="12" lengthAdjust="spacing" textLength="73" x="169.75" y="446.6543">GameFrame</text><line style="stroke:#A80036;stroke-width:1.5;" x1="81.5" x2="298.5" y1="458.5" y2="458.5"/><rect fill="none" height="6" style="stroke:#C82930;stroke-width:1.0;" width="6" x="88.5" y="466.5"/><text fill="#000000" font-family="sans-serif" font-size="11" lengthAdjust="spacing" textLength="135" x="100.5" y="472.7104">listener : GameListener</text><line style="stroke:#A80036;stroke-width:1.0;" x1="81.5" x2="298.5" y1="479.3047" y2="479.3047"/><ellipse cx="91.5" cy="490.3047" fill="#84BE84" rx="3" ry="3" style="stroke:#038048;stroke-width:1.0;"/><text fill="#000000" font-family="sans-serif" font-size="11" lengthAdjust="spacing" textLength="193" x="100.5" y="493.5151">GameFrame(Model : GameModel)</text><!--MD5=[58bf0f2c5689d08f154df1804c04e8d4]
class StartFrame--><rect codeLine="205" fill="#FEFECE" filter="url(#f58g3z0k5qq13)" height="73.6094" id="StartFrame" style="stroke:#A80036;stroke-width:1.5;" width="211" x="444.5" y="426.5"/><ellipse cx="512.75" cy="442.5" fill="#ADD1B2" rx="11" ry="11" style="stroke:#A80036;stroke-width:1.0;"/><path d="M515.0938,438.1719 C514.1563,437.7344 513.5625,437.5938 512.6875,437.5938 C510.0625,437.5938 508.0625,439.6719 508.0625,442.3906 L508.0625,443.5156 C508.0625,446.0938 510.1719,447.9844 513.0625,447.9844 C514.2813,447.9844 515.4375,447.6875 516.1875,447.1406 C516.7656,446.7344 517.0938,446.2813 517.0938,445.8906 C517.0938,445.4375 516.7031,445.0469 516.2344,445.0469 C516.0156,445.0469 515.8125,445.125 515.625,445.3125 C515.1719,445.7969 515.1719,445.7969 514.9844,445.8906 C514.5625,446.1563 513.875,446.2813 513.1094,446.2813 C511.0625,446.2813 509.7656,445.1875 509.7656,443.4844 L509.7656,442.3906 C509.7656,440.6094 511.0156,439.2969 512.75,439.2969 C513.3281,439.2969 513.9375,439.4531 514.4063,439.7031 C514.8906,439.9844 515.0625,440.2031 515.1563,440.6094 C515.2188,441.0156 515.25,441.1406 515.3906,441.2656 C515.5313,441.4063 515.7656,441.5156 515.9844,441.5156 C516.25,441.5156 516.5156,441.375 516.6875,441.1563 C516.7969,441 516.8281,440.8125 516.8281,440.3906 L516.8281,438.9688 C516.8281,438.5313 516.8125,438.4063 516.7188,438.25 C516.5625,437.9844 516.2813,437.8438 515.9844,437.8438 C515.6875,437.8438 515.4844,437.9375 515.2656,438.25 L515.0938,438.1719 Z " fill="#000000"/><text fill="#000000" font-family="sans-serif" font-size="12" lengthAdjust="spacing" textLength="66" x="533.25" y="446.6543">StartFrame</text><line style="stroke:#A80036;stroke-width:1.5;" x1="445.5" x2="654.5" y1="458.5" y2="458.5"/><rect fill="none" height="6" style="stroke:#C82930;stroke-width:1.0;" width="6" x="452.5" y="466.5"/><text fill="#000000" font-family="sans-serif" font-size="11" lengthAdjust="spacing" textLength="135" x="464.5" y="472.7104">listener : GameListener</text><line style="stroke:#A80036;stroke-width:1.0;" x1="445.5" x2="654.5" y1="479.3047" y2="479.3047"/><ellipse cx="455.5" cy="490.3047" fill="#84BE84" rx="3" ry="3" style="stroke:#038048;stroke-width:1.0;"/><text fill="#000000" font-family="sans-serif" font-size="11" lengthAdjust="spacing" textLength="185" x="464.5" y="493.5151">StartFrame(Model : GameModel)</text><!--MD5=[4d8c34dc1ac6f72ce8076fe54533ea6c]
class FoodFrame--><rect codeLine="213" fill="#FEFECE" filter="url(#f58g3z0k5qq13)" height="73.6094" id="FoodFrame" style="stroke:#A80036;stroke-width:1.5;" width="211" x="690.5" y="426.5"/><ellipse cx="757.25" cy="442.5" fill="#ADD1B2" rx="11" ry="11" style="stroke:#A80036;stroke-width:1.0;"/><path d="M759.5938,438.1719 C758.6563,437.7344 758.0625,437.5938 757.1875,437.5938 C754.5625,437.5938 752.5625,439.6719 752.5625,442.3906 L752.5625,443.5156 C752.5625,446.0938 754.6719,447.9844 757.5625,447.9844 C758.7813,447.9844 759.9375,447.6875 760.6875,447.1406 C761.2656,446.7344 761.5938,446.2813 761.5938,445.8906 C761.5938,445.4375 761.2031,445.0469 760.7344,445.0469 C760.5156,445.0469 760.3125,445.125 760.125,445.3125 C759.6719,445.7969 759.6719,445.7969 759.4844,445.8906 C759.0625,446.1563 758.375,446.2813 757.6094,446.2813 C755.5625,446.2813 754.2656,445.1875 754.2656,443.4844 L754.2656,442.3906 C754.2656,440.6094 755.5156,439.2969 757.25,439.2969 C757.8281,439.2969 758.4375,439.4531 758.9063,439.7031 C759.3906,439.9844 759.5625,440.2031 759.6563,440.6094 C759.7188,441.0156 759.75,441.1406 759.8906,441.2656 C760.0313,441.4063 760.2656,441.5156 760.4844,441.5156 C760.75,441.5156 761.0156,441.375 761.1875,441.1563 C761.2969,441 761.3281,440.8125 761.3281,440.3906 L761.3281,438.9688 C761.3281,438.5313 761.3125,438.4063 761.2188,438.25 C761.0625,437.9844 760.7813,437.8438 760.4844,437.8438 C760.1875,437.8438 759.9844,437.9375 759.7656,438.25 L759.5938,438.1719 Z " fill="#000000"/><text fill="#000000" font-family="sans-serif" font-size="12" lengthAdjust="spacing" textLength="69" x="777.75" y="446.6543">FoodFrame</text><line style="stroke:#A80036;stroke-width:1.5;" x1="691.5" x2="900.5" y1="458.5" y2="458.5"/><rect fill="none" height="6" style="stroke:#C82930;stroke-width:1.0;" width="6" x="698.5" y="466.5"/><text fill="#000000" font-family="sans-serif" font-size="11" lengthAdjust="spacing" textLength="135" x="710.5" y="472.7104">listener : GameListener</text><line style="stroke:#A80036;stroke-width:1.0;" x1="691.5" x2="900.5" y1="479.3047" y2="479.3047"/><ellipse cx="701.5" cy="490.3047" fill="#84BE84" rx="3" ry="3" style="stroke:#038048;stroke-width:1.0;"/><text fill="#000000" font-family="sans-serif" font-size="11" lengthAdjust="spacing" textLength="185" x="710.5" y="493.5151">FoodFrame(Model : GameModel)</text><!--MD5=[fa22f29c53ed6d2510bea2e0aa245b7f]
class Window--><rect codeLine="245" fill="#FEFECE" filter="url(#f58g3z0k5qq13)" height="60.8047" id="Window" style="stroke:#A80036;stroke-width:1.5;" width="80" x="483" y="273.5"/><ellipse cx="498" cy="289.5" fill="#ADD1B2" rx="11" ry="11" style="stroke:#A80036;stroke-width:1.0;"/><path d="M500.3438,285.1719 C499.4063,284.7344 498.8125,284.5938 497.9375,284.5938 C495.3125,284.5938 493.3125,286.6719 493.3125,289.3906 L493.3125,290.5156 C493.3125,293.0938 495.4219,294.9844 498.3125,294.9844 C499.5313,294.9844 500.6875,294.6875 501.4375,294.1406 C502.0156,293.7344 502.3438,293.2813 502.3438,292.8906 C502.3438,292.4375 501.9531,292.0469 501.4844,292.0469 C501.2656,292.0469 501.0625,292.125 500.875,292.3125 C500.4219,292.7969 500.4219,292.7969 500.2344,292.8906 C499.8125,293.1563 499.125,293.2813 498.3594,293.2813 C496.3125,293.2813 495.0156,292.1875 495.0156,290.4844 L495.0156,289.3906 C495.0156,287.6094 496.2656,286.2969 498,286.2969 C498.5781,286.2969 499.1875,286.4531 499.6563,286.7031 C500.1406,286.9844 500.3125,287.2031 500.4063,287.6094 C500.4688,288.0156 500.5,288.1406 500.6406,288.2656 C500.7813,288.4063 501.0156,288.5156 501.2344,288.5156 C501.5,288.5156 501.7656,288.375 501.9375,288.1563 C502.0469,288 502.0781,287.8125 502.0781,287.3906 L502.0781,285.9688 C502.0781,285.5313 502.0625,285.4063 501.9688,285.25 C501.8125,284.9844 501.5313,284.8438 501.2344,284.8438 C500.9375,284.8438 500.7344,284.9375 500.5156,285.25 L500.3438,285.1719 Z " fill="#000000"/><text fill="#000000" font-family="sans-serif" font-size="12" lengthAdjust="spacing" textLength="48" x="512" y="293.6543">Window</text><line style="stroke:#A80036;stroke-width:1.5;" x1="484" x2="562" y1="305.5" y2="305.5"/><line style="stroke:#A80036;stroke-width:1.5;" x1="484" x2="562" y1="313.5" y2="313.5"/><ellipse cx="494" cy="324.5" fill="#84BE84" rx="3" ry="3" style="stroke:#038048;stroke-width:1.0;"/><text fill="#000000" font-family="sans-serif" font-size="11" lengthAdjust="spacing" textLength="52" x="503" y="327.7104">Window()</text><!--MD5=[950b704b777f60d9f4f6c788c62d48e4]
class CarePanel--><rect codeLine="233" fill="#FEFECE" filter="url(#f58g3z0k5qq13)" height="48" id="CarePanel" style="stroke:#A80036;stroke-width:1.5;" width="91" x="210.5" y="280"/><ellipse cx="225.5" cy="296" fill="#ADD1B2" rx="11" ry="11" style="stroke:#A80036;stroke-width:1.0;"/><path d="M227.8438,291.6719 C226.9063,291.2344 226.3125,291.0938 225.4375,291.0938 C222.8125,291.0938 220.8125,293.1719 220.8125,295.8906 L220.8125,297.0156 C220.8125,299.5938 222.9219,301.4844 225.8125,301.4844 C227.0313,301.4844 228.1875,301.1875 228.9375,300.6406 C229.5156,300.2344 229.8438,299.7813 229.8438,299.3906 C229.8438,298.9375 229.4531,298.5469 228.9844,298.5469 C228.7656,298.5469 228.5625,298.625 228.375,298.8125 C227.9219,299.2969 227.9219,299.2969 227.7344,299.3906 C227.3125,299.6563 226.625,299.7813 225.8594,299.7813 C223.8125,299.7813 222.5156,298.6875 222.5156,296.9844 L222.5156,295.8906 C222.5156,294.1094 223.7656,292.7969 225.5,292.7969 C226.0781,292.7969 226.6875,292.9531 227.1563,293.2031 C227.6406,293.4844 227.8125,293.7031 227.9063,294.1094 C227.9688,294.5156 228,294.6406 228.1406,294.7656 C228.2813,294.9063 228.5156,295.0156 228.7344,295.0156 C229,295.0156 229.2656,294.875 229.4375,294.6563 C229.5469,294.5 229.5781,294.3125 229.5781,293.8906 L229.5781,292.4688 C229.5781,292.0313 229.5625,291.9063 229.4688,291.75 C229.3125,291.4844 229.0313,291.3438 228.7344,291.3438 C228.4375,291.3438 228.2344,291.4375 228.0156,291.75 L227.8438,291.6719 Z " fill="#000000"/><text fill="#000000" font-family="sans-serif" font-size="12" lengthAdjust="spacing" textLength="59" x="239.5" y="300.1543">CarePanel</text><line style="stroke:#A80036;stroke-width:1.5;" x1="211.5" x2="300.5" y1="312" y2="312"/><line style="stroke:#A80036;stroke-width:1.5;" x1="211.5" x2="300.5" y1="320" y2="320"/><!--MD5=[7410443df040e6b4a32a1c040c7dac6a]
class NeedBar--><rect codeLine="234" fill="#FEFECE" filter="url(#f58g3z0k5qq13)" height="48" id="NeedBar" style="stroke:#A80036;stroke-width:1.5;" width="84" x="86" y="127"/><ellipse cx="101" cy="143" fill="#ADD1B2" rx="11" ry="11" style="stroke:#A80036;stroke-width:1.0;"/><path d="M103.3438,138.6719 C102.4063,138.2344 101.8125,138.0938 100.9375,138.0938 C98.3125,138.0938 96.3125,140.1719 96.3125,142.8906 L96.3125,144.0156 C96.3125,146.5938 98.4219,148.4844 101.3125,148.4844 C102.5313,148.4844 103.6875,148.1875 104.4375,147.6406 C105.0156,147.2344 105.3438,146.7813 105.3438,146.3906 C105.3438,145.9375 104.9531,145.5469 104.4844,145.5469 C104.2656,145.5469 104.0625,145.625 103.875,145.8125 C103.4219,146.2969 103.4219,146.2969 103.2344,146.3906 C102.8125,146.6563 102.125,146.7813 101.3594,146.7813 C99.3125,146.7813 98.0156,145.6875 98.0156,143.9844 L98.0156,142.8906 C98.0156,141.1094 99.2656,139.7969 101,139.7969 C101.5781,139.7969 102.1875,139.9531 102.6563,140.2031 C103.1406,140.4844 103.3125,140.7031 103.4063,141.1094 C103.4688,141.5156 103.5,141.6406 103.6406,141.7656 C103.7813,141.9063 104.0156,142.0156 104.2344,142.0156 C104.5,142.0156 104.7656,141.875 104.9375,141.6563 C105.0469,141.5 105.0781,141.3125 105.0781,140.8906 L105.0781,139.4688 C105.0781,139.0313 105.0625,138.9063 104.9688,138.75 C104.8125,138.4844 104.5313,138.3438 104.2344,138.3438 C103.9375,138.3438 103.7344,138.4375 103.5156,138.75 L103.3438,138.6719 Z " fill="#000000"/><text fill="#000000" font-family="sans-serif" font-size="12" lengthAdjust="spacing" textLength="52" x="115" y="147.1543">NeedBar</text><line style="stroke:#A80036;stroke-width:1.5;" x1="87" x2="169" y1="159" y2="159"/><line style="stroke:#A80036;stroke-width:1.5;" x1="87" x2="169" y1="167" y2="167"/><!--MD5=[f699c29d0d372c35d21a18d639f4fd5e]
class NeedPanel--><rect codeLine="235" fill="#FEFECE" filter="url(#f58g3z0k5qq13)" height="48" id="NeedPanel" style="stroke:#A80036;stroke-width:1.5;" width="95" x="80.5" y="280"/><ellipse cx="95.5" cy="296" fill="#ADD1B2" rx="11" ry="11" style="stroke:#A80036;stroke-width:1.0;"/><path d="M97.8438,291.6719 C96.9063,291.2344 96.3125,291.0938 95.4375,291.0938 C92.8125,291.0938 90.8125,293.1719 90.8125,295.8906 L90.8125,297.0156 C90.8125,299.5938 92.9219,301.4844 95.8125,301.4844 C97.0313,301.4844 98.1875,301.1875 98.9375,300.6406 C99.5156,300.2344 99.8438,299.7813 99.8438,299.3906 C99.8438,298.9375 99.4531,298.5469 98.9844,298.5469 C98.7656,298.5469 98.5625,298.625 98.375,298.8125 C97.9219,299.2969 97.9219,299.2969 97.7344,299.3906 C97.3125,299.6563 96.625,299.7813 95.8594,299.7813 C93.8125,299.7813 92.5156,298.6875 92.5156,296.9844 L92.5156,295.8906 C92.5156,294.1094 93.7656,292.7969 95.5,292.7969 C96.0781,292.7969 96.6875,292.9531 97.1563,293.2031 C97.6406,293.4844 97.8125,293.7031 97.9063,294.1094 C97.9688,294.5156 98,294.6406 98.1406,294.7656 C98.2813,294.9063 98.5156,295.0156 98.7344,295.0156 C99,295.0156 99.2656,294.875 99.4375,294.6563 C99.5469,294.5 99.5781,294.3125 99.5781,293.8906 L99.5781,292.4688 C99.5781,292.0313 99.5625,291.9063 99.4688,291.75 C99.3125,291.4844 99.0313,291.3438 98.7344,291.3438 C98.4375,291.3438 98.2344,291.4375 98.0156,291.75 L97.8438,291.6719 Z " fill="#000000"/><text fill="#000000" font-family="sans-serif" font-size="12" lengthAdjust="spacing" textLength="63" x="109.5" y="300.1543">NeedPanel</text><line style="stroke:#A80036;stroke-width:1.5;" x1="81.5" x2="174.5" y1="312" y2="312"/><line style="stroke:#A80036;stroke-width:1.5;" x1="81.5" x2="174.5" y1="320" y2="320"/><!--MD5=[f91d62c0208a7341279161a0b4365a5c]
class InfoPanel--><rect codeLine="236" fill="#FEFECE" filter="url(#f58g3z0k5qq13)" height="48" id="InfoPanel" style="stroke:#A80036;stroke-width:1.5;" width="85" x="336.5" y="280"/><ellipse cx="351.5" cy="296" fill="#ADD1B2" rx="11" ry="11" style="stroke:#A80036;stroke-width:1.0;"/><path d="M353.8438,291.6719 C352.9063,291.2344 352.3125,291.0938 351.4375,291.0938 C348.8125,291.0938 346.8125,293.1719 346.8125,295.8906 L346.8125,297.0156 C346.8125,299.5938 348.9219,301.4844 351.8125,301.4844 C353.0313,301.4844 354.1875,301.1875 354.9375,300.6406 C355.5156,300.2344 355.8438,299.7813 355.8438,299.3906 C355.8438,298.9375 355.4531,298.5469 354.9844,298.5469 C354.7656,298.5469 354.5625,298.625 354.375,298.8125 C353.9219,299.2969 353.9219,299.2969 353.7344,299.3906 C353.3125,299.6563 352.625,299.7813 351.8594,299.7813 C349.8125,299.7813 348.5156,298.6875 348.5156,296.9844 L348.5156,295.8906 C348.5156,294.1094 349.7656,292.7969 351.5,292.7969 C352.0781,292.7969 352.6875,292.9531 353.1563,293.2031 C353.6406,293.4844 353.8125,293.7031 353.9063,294.1094 C353.9688,294.5156 354,294.6406 354.1406,294.7656 C354.2813,294.9063 354.5156,295.0156 354.7344,295.0156 C355,295.0156 355.2656,294.875 355.4375,294.6563 C355.5469,294.5 355.5781,294.3125 355.5781,293.8906 L355.5781,292.4688 C355.5781,292.0313 355.5625,291.9063 355.4688,291.75 C355.3125,291.4844 355.0313,291.3438 354.7344,291.3438 C354.4375,291.3438 354.2344,291.4375 354.0156,291.75 L353.8438,291.6719 Z " fill="#000000"/><text fill="#000000" font-family="sans-serif" font-size="12" lengthAdjust="spacing" textLength="53" x="365.5" y="300.1543">InfoPanel</text><line style="stroke:#A80036;stroke-width:1.5;" x1="337.5" x2="420.5" y1="312" y2="312"/><line style="stroke:#A80036;stroke-width:1.5;" x1="337.5" x2="420.5" y1="320" y2="320"/><!--MD5=[a520837ef4416b7ac44f8bb1541877a6]
class JFrame--><rect fill="#FEFECE" filter="url(#f58g3z0k5qq13)" height="48" id="JFrame" style="stroke:#A80036;stroke-width:1.5;" width="74" x="335" y="439.5"/><ellipse cx="350" cy="455.5" fill="#ADD1B2" rx="11" ry="11" style="stroke:#A80036;stroke-width:1.0;"/><path d="M352.3438,451.1719 C351.4063,450.7344 350.8125,450.5938 349.9375,450.5938 C347.3125,450.5938 345.3125,452.6719 345.3125,455.3906 L345.3125,456.5156 C345.3125,459.0938 347.4219,460.9844 350.3125,460.9844 C351.5313,460.9844 352.6875,460.6875 353.4375,460.1406 C354.0156,459.7344 354.3438,459.2813 354.3438,458.8906 C354.3438,458.4375 353.9531,458.0469 353.4844,458.0469 C353.2656,458.0469 353.0625,458.125 352.875,458.3125 C352.4219,458.7969 352.4219,458.7969 352.2344,458.8906 C351.8125,459.1563 351.125,459.2813 350.3594,459.2813 C348.3125,459.2813 347.0156,458.1875 347.0156,456.4844 L347.0156,455.3906 C347.0156,453.6094 348.2656,452.2969 350,452.2969 C350.5781,452.2969 351.1875,452.4531 351.6563,452.7031 C352.1406,452.9844 352.3125,453.2031 352.4063,453.6094 C352.4688,454.0156 352.5,454.1406 352.6406,454.2656 C352.7813,454.4063 353.0156,454.5156 353.2344,454.5156 C353.5,454.5156 353.7656,454.375 353.9375,454.1563 C354.0469,454 354.0781,453.8125 354.0781,453.3906 L354.0781,451.9688 C354.0781,451.5313 354.0625,451.4063 353.9688,451.25 C353.8125,450.9844 353.5313,450.8438 353.2344,450.8438 C352.9375,450.8438 352.7344,450.9375 352.5156,451.25 L352.3438,451.1719 Z " fill="#000000"/><text fill="#000000" font-family="sans-serif" font-size="12" lengthAdjust="spacing" textLength="42" x="364" y="459.6543">JFrame</text><line style="stroke:#A80036;stroke-width:1.5;" x1="336" x2="408" y1="471.5" y2="471.5"/><line style="stroke:#A80036;stroke-width:1.5;" x1="336" x2="408" y1="479.5" y2="479.5"/><!--MD5=[5aad3a9cd73736a6490b541e0723f3c6]
link App to GameModel--><path codeLine="18" d="M1361.12,210.09 C1410.41,247.09 1469.51,299.06 1507,358 C1565,449.19 1589.83,576.02 1599.5,643.82 " fill="none" id="App-GameModel" style="stroke:#A80036;stroke-width:1.0;"/><polygon fill="#A80036" points="1600.23,648.997,1602.9457,639.5299,1599.5379,644.0451,1595.0227,640.6373,1600.23,648.997" style="stroke:#A80036;stroke-width:1.0;"/><path d="M1358.6148,213.1936 L1369.8083,211.5488 M1363.3891,206.7744 L1365.0339,217.9679 " fill="none" style="stroke:#A80036;stroke-width:1.0;"/><!--MD5=[992b2de29f9ba77db659bba8f58d410f]
reverse link Tamagotchi to Cat--><path d="M1680.15,1311.118 C1652.65,1354.157 1627.92,1392.855 1611.89,1417.938 " fill="none" id="Tamagotchi-backto-Cat" style="stroke:#A80036;stroke-width:1.0;"/><polygon fill="none" points="1674.35,1307.184,1691.02,1294.1,1686.15,1314.723,1674.35,1307.184" style="stroke:#A80036;stroke-width:1.0;"/><!--MD5=[c95ae832b1b034ec728abb283c20aa06]
reverse link Tamagotchi to Dog--><path d="M1789.29,1313.678 C1780.09,1355.69 1771.85,1393.353 1766.47,1417.938 " fill="none" id="Tamagotchi-backto-Dog" style="stroke:#A80036;stroke-width:1.0;"/><polygon fill="none" points="1782.46,1312.141,1793.57,1294.1,1796.14,1315.135,1782.46,1312.141" style="stroke:#A80036;stroke-width:1.0;"/><!--MD5=[1b08d28f8c247388a1dc551630a38eec]
reverse link Tamagotchi to Robot--><path d="M1904.71,1313.678 C1913.91,1355.69 1922.15,1393.353 1927.53,1417.938 " fill="none" id="Tamagotchi-backto-Robot" style="stroke:#A80036;stroke-width:1.0;"/><polygon fill="none" points="1897.86,1315.135,1900.43,1294.1,1911.54,1312.141,1897.86,1315.135" style="stroke:#A80036;stroke-width:1.0;"/><!--MD5=[72cfdf6f4d0be32c8b3a4ab6894e5eba]
reverse link Tamagotchi to Sheep--><path d="M2022.86,1310.833 C2051.95,1353.987 2078.12,1392.8 2095.07,1417.938 " fill="none" id="Tamagotchi-backto-Sheep" style="stroke:#A80036;stroke-width:1.0;"/><polygon fill="none" points="2016.95,1314.597,2011.58,1294.1,2028.56,1306.77,2016.95,1314.597" style="stroke:#A80036;stroke-width:1.0;"/><!--MD5=[a4a8fd4582b95660215f3ef0b23812bc]
link Tamagotchi to Food--><path codeLine="63" d="M2039.91,1049 C2048.2,1049 2056.48,1049 2064.77,1049 " fill="none" id="Tamagotchi-Food" style="stroke:#A80036;stroke-width:1.0;"/><path d="M2064.92,1045 L2056.92,1053 M2064.92,1053 L2056.92,1045 " fill="none" style="stroke:#A80036;stroke-width:1.0;"/><polygon fill="#A80036" points="2034.68,1049,2043.68,1053,2039.68,1049,2043.68,1045,2034.68,1049" style="stroke:#A80036;stroke-width:1.0;"/><!--MD5=[f38b9dd463217f6d9dd3ce7d330c8c16]
link Tamagotchi to Need--><path codeLine="64" d="M2038.68,1284.047 C2043.08,1287.475 2047.52,1290.797 2052,1294 C2112.09,1336.962 2138.84,1325.513 2207,1354 C2211.23,1355.766 2215.49,1357.563 2219.79,1359.385 " fill="none" id="Tamagotchi-Need" style="stroke:#A80036;stroke-width:1.0;"/><polygon fill="#A80036" points="2224.47,1361.372,2217.7536,1354.1685,2219.8689,1359.415,2214.6224,1361.5303,2224.47,1361.372" style="stroke:#A80036;stroke-width:1.0;"/><path d="M2036.0951,1287.1069 L2047.3315,1285.7863 M2041.053,1280.8284 L2042.3736,1292.0648 " fill="none" style="stroke:#A80036;stroke-width:1.0;"/><!--MD5=[667d1577fa16633dc33d1744e1739fc7]
link GameModel to Tamagotchi--><path codeLine="122" d="M1636.78,739.62 C1648.37,756.621 1662.42,777.228 1677.69,799.638 " fill="none" id="GameModel-Tamagotchi" style="stroke:#A80036;stroke-width:1.0;"/><polygon fill="#A80036" points="1680.56,803.843,1678.7936,794.1538,1677.7428,799.7122,1672.1844,798.6614,1680.56,803.843" style="stroke:#A80036;stroke-width:1.0;"/><path d="M1633.2226,741.5015 L1644.3394,743.6032 M1639.8318,736.994 L1637.7301,748.1108 " fill="none" style="stroke:#A80036;stroke-width:1.0;"/><!--MD5=[b3e0948b74681d28a895837691667aea]
link GameManager to GameSaver--><path codeLine="145" d="M2780.57,746.971 C2777.24,820.718 2771.38,950.894 2768.57,1013.057 " fill="none" id="GameManager-GameSaver" style="stroke:#A80036;stroke-width:1.0;"/><polygon fill="#A80036" points="2768.35,1018.135,2772.7493,1009.3233,2768.5741,1013.14,2764.7573,1008.9648,2768.35,1018.135" style="stroke:#A80036;stroke-width:1.0;"/><path d="M2776.588,746.431 L2784.218,754.7846 M2784.5798,746.7928 L2776.2262,754.4228 " fill="none" style="stroke:#A80036;stroke-width:1.0;"/><!--MD5=[a431adc5335c5e47c3defa6aa1c8c16f]
link GameManager to GameLoader--><path codeLine="146" d="M2874.1,744.937 C2879.84,749.966 2885.22,755.325 2890,761 C2955.04,838.163 2989.07,955.59 3002.7,1013.39 " fill="none" id="GameManager-GameLoader" style="stroke:#A80036;stroke-width:1.0;"/><polygon fill="#A80036" points="3003.88,1018.458,3005.7348,1008.7854,3002.7461,1013.5883,2997.9432,1010.5996,3003.88,1018.458" style="stroke:#A80036;stroke-width:1.0;"/><path d="M2871.2914,747.7955 L2882.5692,746.8949 M2876.4801,741.7063 L2877.3806,752.9841 " fill="none" style="stroke:#A80036;stroke-width:1.0;"/><!--MD5=[a8ade0bcedac27b3aea5d3caf862e183]
link GameManager to GameModel--><path codeLine="147" d="M2657.16,692 C2341.71,692 2026.25,692 1710.8,692 " fill="none" id="GameManager-GameModel" style="stroke:#A80036;stroke-width:1.0;"/><path d="M1710.66,696 L1718.66,688 M1710.66,688 L1718.66,696 " fill="none" style="stroke:#A80036;stroke-width:1.0;"/><polygon fill="#A80036" points="2662.27,692,2653.27,688,2657.27,692,2653.27,696,2662.27,692" style="stroke:#A80036;stroke-width:1.0;"/><!--MD5=[a6a9ee2a8aa649704548ac38ec5718b7]
link App to GameController--><path codeLine="155" d="M1274,212.33 C1274,264.98 1274,341.27 1274,395.74 " fill="none" id="App-GameController" style="stroke:#A80036;stroke-width:1.0;"/><polygon fill="#A80036" points="1274,400.94,1278,391.94,1274,395.94,1270,391.94,1274,400.94" style="stroke:#A80036;stroke-width:1.0;"/><path d="M1270,212.15 L1278,220.15 M1278,212.15 L1270,220.15 " fill="none" style="stroke:#A80036;stroke-width:1.0;"/><!--MD5=[61212d5962edc3d5ba8f8fc713940831]
link GameController to GameListener--><path codeLine="174" d="M1273.7,531.47 C1273.54,569.82 1273.33,616.71 1273.18,649.701 " fill="none" id="GameController-GameListener" style="stroke:#A80036;stroke-width:1.0;"/><polygon fill="#A80036" points="1273.16,654.873,1277.2011,645.8914,1273.1829,649.8731,1269.2012,645.8548,1273.16,654.873" style="stroke:#A80036;stroke-width:1.0;"/><path d="M1269.7157,531.0786 L1277.6928,539.1014 M1277.7157,531.1014 L1269.6929,539.0785 " fill="none" style="stroke:#A80036;stroke-width:1.0;"/><!--MD5=[50db5deea18db6acb34b5207d0606d76]
link GameController to GameModel--><path codeLine="175" d="M1418.53,528.54 C1434.29,537.25 1449.75,546.62 1464,556.5 C1500.85,582.05 1537.34,617.2 1563.96,645.161 " fill="none" id="GameController-GameModel" style="stroke:#A80036;stroke-width:1.0;"/><polygon fill="#A80036" points="1567.49,648.882,1564.2028,639.5979,1564.0508,645.2527,1558.396,645.1007,1567.49,648.882" style="stroke:#A80036;stroke-width:1.0;"/><path d="M1416.546,532.0092 L1427.4043,528.8317 M1420.3864,524.9913 L1423.5639,535.8496 " fill="none" style="stroke:#A80036;stroke-width:1.0;"/><!--MD5=[05e205edae0d8125056b2f977380a90d]
link App to GameView--><path codeLine="192" d="M1178.88,197.9 C1139.24,217.59 1092.84,241.38 1048.16,266.37 " fill="none" id="App-GameView" style="stroke:#A80036;stroke-width:1.0;"/><polygon fill="#A80036" points="1043.57,268.95,1053.3765,268.0377,1047.9313,266.5048,1049.4642,261.0596,1043.57,268.95" style="stroke:#A80036;stroke-width:1.0;"/><path d="M1177.5942,194.0643 L1173.9753,204.7836 M1181.1444,201.2334 L1170.4251,197.6145 " fill="none" style="stroke:#A80036;stroke-width:1.0;"/><!--MD5=[b057ffd45ba87c32f15f07e0c36cda14]
link GameView to GameModel--><path codeLine="193" d="M1048.52,341.07 C1110.72,353.25 1427.81,331.24 1464,358 C1536.17,411.36 1495.34,466.14 1531,548.5 C1545.13,581.15 1563.57,616.66 1578.5,644.062 " fill="none" id="GameView-GameModel" style="stroke:#A80036;stroke-width:1.0;"/><polygon fill="#A80036" points="1581.05,648.735,1580.2409,638.9194,1578.6508,644.3482,1573.2221,642.7581,1581.05,648.735" style="stroke:#A80036;stroke-width:1.0;"/><path d="M1047.5087,344.9517 L1057.1778,339.0771 M1049.406,337.1799 L1055.2805,346.8489 " fill="none" style="stroke:#A80036;stroke-width:1.0;"/><!--MD5=[fbf26387acebee23c0f109bbefe53776]
link GameController to GameView--><path codeLine="194" d="M1150.62,398.31 C1118.17,380.95 1083.11,361.76 1048.07,341.6 " fill="none" id="GameController-GameView" style="stroke:#A80036;stroke-width:1.0;"/><polygon fill="#A80036" points="1043.59,339.02,1049.383,346.985,1047.9197,341.5207,1053.3841,340.0574,1043.59,339.02" style="stroke:#A80036;stroke-width:1.0;"/><path d="M1152.8636,394.9764 L1142.0384,398.265 M1149.0953,402.0333 L1145.8066,391.2081 " fill="none" style="stroke:#A80036;stroke-width:1.0;"/><!--MD5=[6a0a2d82f50309d80f19c1ce080fd8a4]
link GameView to GameFrame--><path codeLine="220" d="M929.338,337.52 C925.564,338.86 921.767,340.04 918,341 C853.252,357.45 379.56,334.57 317,358 C281.339,371.36 248.367,399.16 224.96,422.73 " fill="none" id="GameView-GameFrame" style="stroke:#A80036;stroke-width:1.0;"/><polygon fill="#A80036" points="221.286,426.47,230.4437,422.8455,224.7871,422.9003,224.7322,417.2437,221.286,426.47" style="stroke:#A80036;stroke-width:1.0;"/><path d="M928.0149,333.7432 L923.3381,344.045 M930.8274,341.2325 L920.5256,336.5557 " fill="none" style="stroke:#A80036;stroke-width:1.0;"/><!--MD5=[32563ca9a0526c6e64f0b9d12b00cdfd]
link GameView to FoodFrame--><path codeLine="221" d="M940.634,344.47 C911.203,368.49 873.742,399.06 844.319,423.07 " fill="none" id="GameView-FoodFrame" style="stroke:#A80036;stroke-width:1.0;"/><polygon fill="#A80036" points="840.406,426.26,849.9117,423.6828,844.2845,423.1045,844.8628,417.4772,840.406,426.26" style="stroke:#A80036;stroke-width:1.0;"/><path d="M938.3192,341.1943 L937.1828,352.4508 M943.3792,347.3908 L932.1228,346.2544 " fill="none" style="stroke:#A80036;stroke-width:1.0;"/><!--MD5=[e4abdc765fd86c08e4c84b46ae94138a]
link GameView to StartFrame--><path codeLine="222" d="M929.571,337.23 C925.717,338.66 921.841,339.94 918,341 C812.783,370.04 774.088,316.83 673,358 C638.637,372 606.914,399.47 584.294,422.74 " fill="none" id="GameView-StartFrame" style="stroke:#A80036;stroke-width:1.0;"/><polygon fill="#A80036" points="580.743,426.43,589.8597,422.7037,584.2041,422.8216,584.0863,417.166,580.743,426.43" style="stroke:#A80036;stroke-width:1.0;"/><path d="M928.3276,333.4262 L923.7745,343.7833 M931.2296,340.8813 L920.8725,336.3282 " fill="none" style="stroke:#A80036;stroke-width:1.0;"/><!--MD5=[a8e0fbb768702d83ff672d96490d251e]
link GameFrame to GameListener--><path codeLine="224" d="M238.239,503.65 C260.878,520.05 289,537.76 317,548.5 C575.582,647.655 898.08,678.188 1094.62,687.368 " fill="none" id="GameFrame-GameListener" style="stroke:#A80036;stroke-width:1.0;"/><polygon fill="#A80036" points="1099.81,687.607,1091.0023,683.1997,1094.8152,687.3784,1090.6365,691.1913,1099.81,687.607" style="stroke:#A80036;stroke-width:1.0;"/><path d="M235.7554,506.7792 L246.9343,505.0375 M240.474,500.3189 L242.2157,511.4978 " fill="none" style="stroke:#A80036;stroke-width:1.0;"/><!--MD5=[eb18c07b6ca2b89457718dfc51e29851]
link StartFrame to GameListener--><path codeLine="225" d="M598.633,503.81 C620.316,519.68 646.836,536.94 673,548.5 C808.342,608.32 972.429,645.084 1094.78,666.25 " fill="none" id="StartFrame-GameListener" style="stroke:#A80036;stroke-width:1.0;"/><polygon fill="#A80036" points="1099.84,667.121,1091.6587,661.6377,1094.914,666.2641,1090.2876,669.5193,1099.84,667.121" style="stroke:#A80036;stroke-width:1.0;"/><path d="M596.0139,506.8466 L607.2004,505.1546 M600.7611,500.4074 L602.4532,511.5939 " fill="none" style="stroke:#A80036;stroke-width:1.0;"/><!--MD5=[d5b9b8e8de338c7079956d53ad676e8f]
link FoodFrame to GameListener--><path codeLine="226" d="M876.598,502.77 C964.532,544.53 1104.47,610.97 1192.4,652.729 " fill="none" id="FoodFrame-GameListener" style="stroke:#A80036;stroke-width:1.0;"/><polygon fill="#A80036" points="1197.07,654.946,1190.6539,647.4738,1192.5528,652.8024,1187.2242,654.7013,1197.07,654.946" style="stroke:#A80036;stroke-width:1.0;"/><path d="M874.6462,506.2684 L885.3048,502.4746 M878.0786,499.0422 L881.8724,509.7008 " fill="none" style="stroke:#A80036;stroke-width:1.0;"/><!--MD5=[e332445240db7b0d88de303f8b06c277]
reverse link Window to GameFrame--><path codeLine="228" d="M464.052,332.58 C455.763,335.77 447.254,338.7 439,341 C386.262,355.69 367.133,336 317,358 C280.917,373.83 246.831,402.96 223.075,426.45 " fill="none" id="Window-backto-GameFrame" style="stroke:#A80036;stroke-width:1.0;"/><polygon fill="none" points="461.617,326.01,482.773,324.82,466.975,338.94,461.617,326.01" style="stroke:#A80036;stroke-width:1.0;"/><!--MD5=[3b50acb2467615b47a39bf4054d86a79]
reverse link Window to StartFrame--><path codeLine="229" d="M531.503,354.6 C535.492,377.87 540.159,405.09 543.807,426.37 " fill="none" id="Window-backto-StartFrame" style="stroke:#A80036;stroke-width:1.0;"/><polygon fill="none" points="524.558,355.52,528.078,334.62,538.357,353.15,524.558,355.52" style="stroke:#A80036;stroke-width:1.0;"/><!--MD5=[2a9b42a1c715b0690a22657bdf3f80eb]
reverse link Window to FoodFrame--><path codeLine="230" d="M573.947,342 C615.511,355.73 634.911,340.46 673,358 C707.994,374.12 740.881,403.07 763.829,426.42 " fill="none" id="Window-backto-FoodFrame" style="stroke:#A80036;stroke-width:1.0;"/><polygon fill="none" points="571.324,348.49,555.398,334.51,576.564,335.51,571.324,348.49" style="stroke:#A80036;stroke-width:1.0;"/><!--MD5=[37223b750e64ec7715367ed525577e0e]
link CarePanel to GameFrame--><path codeLine="238" d="M246.261,328.24 C235.433,354.08 217.804,396.15 205.165,426.31 " fill="none" id="CarePanel-GameFrame" style="stroke:#A80036;stroke-width:1.0;stroke-dasharray:7.0,7.0;"/><!--MD5=[b2a7c5d60f50e4b1ae9d6683edcbcae9]
link NeedBar to NeedPanel--><path codeLine="239" d="M128,180.46 C128,207.46 128,247.82 128,274.76 " fill="none" id="NeedBar-NeedPanel" style="stroke:#A80036;stroke-width:1.0;"/><polygon fill="#A80036" points="128,279.96,132,270.96,128,274.96,124,270.96,128,279.96" style="stroke:#A80036;stroke-width:1.0;"/><path d="M124,180.26 L132,188.26 M132,180.26 L124,188.26 " fill="none" style="stroke:#A80036;stroke-width:1.0;"/><!--MD5=[1182d58b427b0cc115e9f57f81c0acd1]
link NeedPanel to GameFrame--><path codeLine="240" d="M137.148,328.24 C147.321,354.08 163.881,396.15 175.754,426.31 " fill="none" id="NeedPanel-GameFrame" style="stroke:#A80036;stroke-width:1.0;stroke-dasharray:7.0,7.0;"/><!--MD5=[6ddea0706cb72e8478678ea3dfc48a20]
link InfoPanel to GameFrame--><path codeLine="241" d="M351.112,328.24 C320.102,354.08 269.621,396.15 233.427,426.31 " fill="none" id="InfoPanel-GameFrame" style="stroke:#A80036;stroke-width:1.0;stroke-dasharray:7.0,7.0;"/><!--MD5=[7d381d5b1576a690622ed59881adf088]
link Window to JFrame--><path codeLine="251" d="M482.618,320.84 C463.985,329.66 442.592,342.09 427,358 C409.689,375.66 396.48,399.88 387.351,420.55 " fill="none" id="Window-to-JFrame" style="stroke:#A80036;stroke-width:1.0;"/><polygon fill="none" points="393.738,423.43,379.715,439.32,380.771,418.15,393.738,423.43" style="stroke:#A80036;stroke-width:1.0;"/><!--MD5=[9d8fd26f266e5dfc957473e2ce5cae4d]
@startuml
package com.lado.App
{
    Class App
    {
        -model : GameModel
        -view : GameView
        -controller : GameController
        - -
        +App()
        +main(args : String[]) : void
    }

    


    package "Model" #f2a5a2
    {
        App x- -> GameModel
        
        class GameModel
        {
            + Tamagotchi : tamagotchi
            + gameManager : gameManager
            - -
            + GameModel()
        }

       
        


        package "Tamagotchi" #edc4c2{
           
            class Cat extends Tamagotchi
            {
                +Cat(name : String)
                
            }

            class Dog extends Tamagotchi
            {
                +Dog(name : String)
            }

            class Robot extends Tamagotchi
            {
                +Robot(name : String)
            }

            class Sheep extends Tamagotchi
            {
                +Sheep(name : String)
            }


            
            class Food{
                -id :   int
                -name : String  
                - -
                +Food(id : int, name : String)
            }
            Food x-left-> Tamagotchi
            Tamagotchi x- -> Need 

            class Need
            {
                ~ name : String
                ~ value : int
                ~ factor : float
                ~ critical : boolean
                - -
                ~ Need(name : String, value : int, factor : float, critical : boolean)
                ~ calcDepletion(time : float) : void
                ~ setVal(value : int) : void
                + setFactor(factor : float) : void
                + getVal() : int


            }
         
            class Tamagotchi
            {
                ~ name : String
                # breed : String
                ~ favoriteFoods : String[]
                - health : Need
                - alive : boolean
                - mood : String
                - energy : Need
                - hunger : Need
                - cleanliness : Need
                - happiness : Need
                ~ CRITICAL_THRESHOLD : integer
                # needs : Need[] = { energy, hunger, cleanliness, happiness }
                - - -
                + Tamagotchi(String name) : Tamagotchi
                + Tamagotchi() : Tamagotchi
                + scanCritical() : Boolean 
                + depleteNeeds() : void 
                + setDefaultStats() : void 
                - - - -
                + getName() : String
                + setName(String newName) : void
                - - -
                + getBreed() : String
                + setBreed(newBreed : int)void
                - - -
                + evalMood() : void
                + getMood() : String
                + setMood(newMood : String) : void
                - - -
                + checkHealth() : void
                + kill() : void
                + hurt(int damage) : void
                + heal(int healValue) : void
                + setHealth(int newHealth) : void
                + boolean getAlive()
                + void setAlive(boolean alive)
                
            }
            GameModel x- -> Tamagotchi
        }

        package "saveData" #edc4c2
        {
            class GameManager
            {
                # saveLocation : String = "../saveData/"
                + saver gameSaver
                + loader gameLoader
                - -
                + GameManager()
            }

            class GameSaver
            {
                +save(game : GameModel) : void
            }

            class GameLoader
            {
                +load(game : GameModel) : void
            }
            GameManager x- ->GameSaver
            GameManager x- ->GameLoader
            GameModel x-left-> GameManager
        }

    }


        package "Controller" #7ad7ff  {

            App x- -> GameController
            
        class GameController
        {
            -gameView : GameView
            -gameModel : GameModel
            -gameListener : GameListener
            - -
            +GameController(model : GameModel, view : GameView)
            +start() : void
            +update() : void
        }
        class GameListener
        {
            +GameListener(model : GameModel, view : GameView)
            - -
            + <override> actionperformed(event : ActionEvent) : void
        }
        
        GameController x- -> GameListener
        GameController x- -> GameModel


    }



    package "View" #b2ff91 {

        class GameView
        {
            +GameView()
            +update() : void
        }

     

        App x- -> GameView
        GameView x- -> GameModel
        GameController x- -> GameView

        package "UIPackage" #96ff69{

            class GameFrame
            {
                - listener : GameListener
                - -
                + GameFrame(Model : GameModel)
            }

             class StartFrame
            {
                - listener : GameListener
                - -
                + StartFrame(Model : GameModel)
            }


            class FoodFrame
            {
                - listener : GameListener
                - -
                + FoodFrame(Model : GameModel)
            }

   GameView x- -> GameFrame
        GameView x- -> FoodFrame
        GameView x- -> StartFrame

            GameFrame x- -> GameListener
            StartFrame x- -> GameListener
            FoodFrame x- -> GameListener
    
            Window <|- - GameFrame
            Window <|- - StartFrame
            Window <|- - FoodFrame


            class CarePanel
            class NeedBar
            class NeedPanel
            class InfoPanel

            CarePanel  .. GameFrame
            NeedBar  x- -> NeedPanel
            NeedPanel  .. GameFrame
            InfoPanel  .. GameFrame

            
           
            class Window
            {
                + Window()
               
            }

            Window - -|> JFrame

    }



}
'/
@enduml

@startuml
package com.lado.App
{
    Class App
    {
        -model : GameModel
        -view : GameView
        -controller : GameController
        - -
        +App()
        +main(args : String[]) : void
    }

    


    package "Model" #f2a5a2
    {
        App x- -> GameModel
        
        class GameModel
        {
            + Tamagotchi : tamagotchi
            + gameManager : gameManager
            - -
            + GameModel()
        }

       
        


        package "Tamagotchi" #edc4c2{
           
            class Cat extends Tamagotchi
            {
                +Cat(name : String)
                
            }

            class Dog extends Tamagotchi
            {
                +Dog(name : String)
            }

            class Robot extends Tamagotchi
            {
                +Robot(name : String)
            }

            class Sheep extends Tamagotchi
            {
                +Sheep(name : String)
            }


            
            class Food{
                -id :   int
                -name : String  
                - -
                +Food(id : int, name : String)
            }
            Food x-left-> Tamagotchi
            Tamagotchi x- -> Need 

            class Need
            {
                ~ name : String
                ~ value : int
                ~ factor : float
                ~ critical : boolean
                - -
                ~ Need(name : String, value : int, factor : float, critical : boolean)
                ~ calcDepletion(time : float) : void
                ~ setVal(value : int) : void
                + setFactor(factor : float) : void
                + getVal() : int


            }
         
            class Tamagotchi
            {
                ~ name : String
                # breed : String
                ~ favoriteFoods : String[]
                - health : Need
                - alive : boolean
                - mood : String
                - energy : Need
                - hunger : Need
                - cleanliness : Need
                - happiness : Need
                ~ CRITICAL_THRESHOLD : integer
                # needs : Need[] = { energy, hunger, cleanliness, happiness }
                - - -
                + Tamagotchi(String name) : Tamagotchi
                + Tamagotchi() : Tamagotchi
                + scanCritical() : Boolean 
                + depleteNeeds() : void 
                + setDefaultStats() : void 
                - - - -
                + getName() : String
                + setName(String newName) : void
                - - -
                + getBreed() : String
                + setBreed(newBreed : int)void
                - - -
                + evalMood() : void
                + getMood() : String
                + setMood(newMood : String) : void
                - - -
                + checkHealth() : void
                + kill() : void
                + hurt(int damage) : void
                + heal(int healValue) : void
                + setHealth(int newHealth) : void
                + boolean getAlive()
                + void setAlive(boolean alive)
                
            }
            GameModel x- -> Tamagotchi
        }

        package "saveData" #edc4c2
        {
            class GameManager
            {
                # saveLocation : String = "../saveData/"
                + saver gameSaver
                + loader gameLoader
                - -
                + GameManager()
            }

            class GameSaver
            {
                +save(game : GameModel) : void
            }

            class GameLoader
            {
                +load(game : GameModel) : void
            }
            GameManager x- ->GameSaver
            GameManager x- ->GameLoader
            GameModel x-left-> GameManager
        }

    }


        package "Controller" #7ad7ff  {

            App x- -> GameController
            
        class GameController
        {
            -gameView : GameView
            -gameModel : GameModel
            -gameListener : GameListener
            - -
            +GameController(model : GameModel, view : GameView)
            +start() : void
            +update() : void
        }
        class GameListener
        {
            +GameListener(model : GameModel, view : GameView)
            - -
            + <override> actionperformed(event : ActionEvent) : void
        }
        
        GameController x- -> GameListener
        GameController x- -> GameModel


    }



    package "View" #b2ff91 {

        class GameView
        {
            +GameView()
            +update() : void
        }

     

        App x- -> GameView
        GameView x- -> GameModel
        GameController x- -> GameView

        package "UIPackage" #96ff69{

            class GameFrame
            {
                - listener : GameListener
                - -
                + GameFrame(Model : GameModel)
            }

             class StartFrame
            {
                - listener : GameListener
                - -
                + StartFrame(Model : GameModel)
            }


            class FoodFrame
            {
                - listener : GameListener
                - -
                + FoodFrame(Model : GameModel)
            }

   GameView x- -> GameFrame
        GameView x- -> FoodFrame
        GameView x- -> StartFrame

            GameFrame x- -> GameListener
            StartFrame x- -> GameListener
            FoodFrame x- -> GameListener
    
            Window <|- - GameFrame
            Window <|- - StartFrame
            Window <|- - FoodFrame


            class CarePanel
            class NeedBar
            class NeedPanel
            class InfoPanel

            CarePanel  .. GameFrame
            NeedBar  x- -> NeedPanel
            NeedPanel  .. GameFrame
            InfoPanel  .. GameFrame

            
           
            class Window
            {
                + Window()
               
            }

            Window - -|> JFrame

    }



}
@enduml

PlantUML version 1.2021.15(Tue Nov 30 16:45:34 UTC 2021)
(GPL source distribution)
Java Runtime: Java(TM) SE Runtime Environment
JVM: Java HotSpot(TM) 64-Bit Server VM
Default Encoding: UTF-8
Language: en
Country: US
--></g></svg>