<?xml version="1.0" encoding="UTF-8" standalone="no"?><svg xmlns="http://www.w3.org/2000/svg" xmlns:xlink="http://www.w3.org/1999/xlink" contentScriptType="application/ecmascript" contentStyleType="text/css" height="849px" preserveAspectRatio="none" style="width:1796px;height:849px;background:#FFFFFF;" version="1.1" viewBox="0 0 1796 849" width="1796px" zoomAndPan="magnify"><defs><filter height="300%" id="fs2vi37uhctjv" width="300%" x="-1" y="-1"><feGaussianBlur result="blurOut" stdDeviation="2.0"/><feColorMatrix in="blurOut" result="blurOut2" type="matrix" values="0 0 0 0 0 0 0 0 0 0 0 0 0 0 0 0 0 0 .4 0"/><feOffset dx="4.0" dy="4.0" in="blurOut2" result="blurOut3"/><feBlend in="SourceGraphic" in2="blurOut3" mode="normal"/></filter></defs><g><!--MD5=[4cc74f45a214a890db56f6427b503464]
cluster Cas d'utilisation 3--><polygon fill="#FFFFFF" filter="url(#fs2vi37uhctjv)" points="16,562,170,562,177,584.2969,1380.5,584.2969,1380.5,842,16,842,16,562" style="stroke:#000000;stroke-width:1.5;"/><line style="stroke:#000000;stroke-width:1.5;" x1="16" x2="177" y1="584.2969" y2="584.2969"/><text fill="#000000" font-family="sans-serif" font-size="14" font-weight="bold" lengthAdjust="spacing" textLength="148" x="20" y="576.9951">Cas d'utilisation 3</text><!--MD5=[bae33c02489a057fd2564785c4f28498]
cluster Cas d'utilisation 2--><polygon fill="#FFFFFF" filter="url(#fs2vi37uhctjv)" points="16,264,170,264,177,286.2969,1428,286.2969,1428,538,16,538,16,264" style="stroke:#000000;stroke-width:1.5;"/><line style="stroke:#000000;stroke-width:1.5;" x1="16" x2="177" y1="286.2969" y2="286.2969"/><text fill="#000000" font-family="sans-serif" font-size="14" font-weight="bold" lengthAdjust="spacing" textLength="148" x="20" y="278.9951">Cas d'utilisation 2</text><!--MD5=[cf63425ac97b687a3aaecd1b61b8f4f8]
cluster Cas d'utilisation 1--><polygon fill="#FFFFFF" filter="url(#fs2vi37uhctjv)" points="16,6,170,6,177,28.2969,1779,28.2969,1779,240,16,240,16,6" style="stroke:#000000;stroke-width:1.5;"/><line style="stroke:#000000;stroke-width:1.5;" x1="16" x2="177" y1="28.2969" y2="28.2969"/><text fill="#000000" font-family="sans-serif" font-size="14" font-weight="bold" lengthAdjust="spacing" textLength="148" x="20" y="20.9951">Cas d'utilisation 1</text><!--MD5=[aee9c25d6cf4f79b450fde5d010897af]
entity user3--><ellipse cx="68.5" cy="729" fill="#FEFECE" filter="url(#fs2vi37uhctjv)" rx="8" ry="8" style="stroke:#A80036;stroke-width:1.5;"/><path d="M68.5,737 L68.5,764 M55.5,745 L81.5,745 M68.5,764 L55.5,779 M68.5,764 L81.5,779 " fill="none" filter="url(#fs2vi37uhctjv)" style="stroke:#A80036;stroke-width:1.5;"/><text fill="#000000" font-family="sans-serif" font-size="14" lengthAdjust="spacing" textLength="73" x="32" y="797.4951">Utilisateur</text><ellipse cx="280.464" cy="760.1928" fill="#FEFECE" filter="url(#fs2vi37uhctjv)" rx="68.964" ry="16.1928" style="stroke:#A80036;stroke-width:1.5;"/><text fill="#000000" font-family="sans-serif" font-size="14" lengthAdjust="spacing" textLength="90" x="232.464" y="763.9404">Fin de Partie</text><ellipse cx="637.7599" cy="803.852" fill="#FEFECE" filter="url(#fs2vi37uhctjv)" rx="97.2599" ry="21.852" style="stroke:#A80036;stroke-width:1.5;"/><text fill="#000000" font-family="sans-serif" font-size="14" lengthAdjust="spacing" textLength="158" x="558.7599" y="806.6987">s'occuper Tamagotchi</text><ellipse cx="637.9604" cy="618.9921" fill="#FEFECE" filter="url(#fs2vi37uhctjv)" rx="95.4604" ry="21.4921" style="stroke:#A80036;stroke-width:1.5;"/><text fill="#000000" font-family="sans-serif" font-size="14" lengthAdjust="spacing" textLength="154" x="560.9604" y="621.8388">Délaisser Tamagotchi</text><ellipse cx="637.8658" cy="710.7732" fill="#FEFECE" filter="url(#fs2vi37uhctjv)" rx="81.8658" ry="18.7732" style="stroke:#A80036;stroke-width:1.5;"/><text fill="#000000" font-family="sans-serif" font-size="14" lengthAdjust="spacing" textLength="123" x="575.3805" y="713.9463">Mort Tamagotchi</text><ellipse cx="955.6868" cy="790.9374" fill="#FEFECE" filter="url(#fs2vi37uhctjv)" rx="72.6868" ry="16.9374" style="stroke:#A80036;stroke-width:1.5;"/><text fill="#000000" font-family="sans-serif" font-size="14" lengthAdjust="spacing" textLength="100" x="902.6868" y="794.6849">Choisir Action</text><ellipse cx="1282.3658" cy="790.7732" fill="#FEFECE" filter="url(#fs2vi37uhctjv)" rx="81.8658" ry="18.7732" style="stroke:#A80036;stroke-width:1.5;"/><text fill="#000000" font-family="sans-serif" font-size="14" lengthAdjust="spacing" textLength="123" x="1219.8805" y="793.9463">Validation Action</text><!--MD5=[7d9a324aa2179074e5d7a1e217b89663]
entity user2--><ellipse cx="68.5" cy="342" fill="#FEFECE" filter="url(#fs2vi37uhctjv)" rx="8" ry="8" style="stroke:#A80036;stroke-width:1.5;"/><path d="M68.5,350 L68.5,377 M55.5,358 L81.5,358 M68.5,377 L55.5,392 M68.5,377 L81.5,392 " fill="none" filter="url(#fs2vi37uhctjv)" style="stroke:#A80036;stroke-width:1.5;"/><text fill="#000000" font-family="sans-serif" font-size="14" lengthAdjust="spacing" textLength="73" x="32" y="410.4951">Utilisateur</text><ellipse cx="280.4604" cy="372.9921" fill="#FEFECE" filter="url(#fs2vi37uhctjv)" rx="95.4604" ry="21.4921" style="stroke:#A80036;stroke-width:1.5;"/><text fill="#000000" font-family="sans-serif" font-size="14" lengthAdjust="spacing" textLength="154" x="203.4604" y="375.8388">Reprendre une Partie</text><ellipse cx="637.834" cy="325.8668" fill="#FEFECE" filter="url(#fs2vi37uhctjv)" rx="119.834" ry="26.3668" style="stroke:#A80036;stroke-width:1.5;"/><text fill="#000000" font-family="sans-serif" font-size="14" lengthAdjust="spacing" textLength="207" x="534.334" y="328.7135">recréer instance Tamagotchi</text><ellipse cx="637.7599" cy="485.852" fill="#FEFECE" filter="url(#fs2vi37uhctjv)" rx="97.2599" ry="21.852" style="stroke:#A80036;stroke-width:1.5;"/><text fill="#000000" font-family="sans-serif" font-size="14" lengthAdjust="spacing" textLength="158" x="558.7599" y="488.6987">s'occuper Tamagotchi</text><ellipse cx="280.3658" cy="486.7732" fill="#FEFECE" filter="url(#fs2vi37uhctjv)" rx="81.8658" ry="18.7732" style="stroke:#A80036;stroke-width:1.5;"/><text fill="#000000" font-family="sans-serif" font-size="14" lengthAdjust="spacing" textLength="123" x="217.8805" y="489.9463">Mort Tamagotchi</text><ellipse cx="637.9744" cy="407.8949" fill="#FEFECE" filter="url(#fs2vi37uhctjv)" rx="87.4744" ry="19.8949" style="stroke:#A80036;stroke-width:1.5;"/><text fill="#000000" font-family="sans-serif" font-size="14" lengthAdjust="spacing" textLength="136" x="569.9744" y="410.7416">Sauvegarder Partie</text><ellipse cx="955.7198" cy="327.244" fill="#FEFECE" filter="url(#fs2vi37uhctjv)" rx="74.2198" ry="17.244" style="stroke:#A80036;stroke-width:1.5;"/><text fill="#000000" font-family="sans-serif" font-size="14" lengthAdjust="spacing" textLength="104" x="900.7198" y="330.9915">Charger Partie</text><ellipse cx="1282.7278" cy="327.8456" fill="#FEFECE" filter="url(#fs2vi37uhctjv)" rx="129.7278" ry="28.3456" style="stroke:#A80036;stroke-width:1.5;"/><text fill="#000000" font-family="sans-serif" font-size="14" lengthAdjust="spacing" textLength="228" x="1168.7278" y="330.6922">récupérer fichier de sauvegarde</text><ellipse cx="955.6868" cy="485.9374" fill="#FEFECE" filter="url(#fs2vi37uhctjv)" rx="72.6868" ry="16.9374" style="stroke:#A80036;stroke-width:1.5;"/><text fill="#000000" font-family="sans-serif" font-size="14" lengthAdjust="spacing" textLength="100" x="902.6868" y="489.6849">Choisir Action</text><ellipse cx="1282.2652" cy="486.153" fill="#FEFECE" filter="url(#fs2vi37uhctjv)" rx="113.7652" ry="25.153" style="stroke:#A80036;stroke-width:1.5;"/><text fill="#000000" font-family="sans-serif" font-size="14" lengthAdjust="spacing" textLength="194" x="1185.2652" y="488.9997">Vérification Validité Action</text><!--MD5=[0fe5ec6a8e87a3f9f38d025ed254bc32]
entity user1--><ellipse cx="68.5" cy="101" fill="#FEFECE" filter="url(#fs2vi37uhctjv)" rx="8" ry="8" style="stroke:#A80036;stroke-width:1.5;"/><path d="M68.5,109 L68.5,136 M55.5,117 L81.5,117 M68.5,136 L55.5,151 M68.5,136 L81.5,151 " fill="none" filter="url(#fs2vi37uhctjv)" style="stroke:#A80036;stroke-width:1.5;"/><text fill="#000000" font-family="sans-serif" font-size="14" lengthAdjust="spacing" textLength="73" x="32" y="169.4951">Utilisateur</text><ellipse cx="280.6957" cy="131.8391" fill="#FEFECE" filter="url(#fs2vi37uhctjv)" rx="114.6957" ry="25.3391" style="stroke:#A80036;stroke-width:1.5;"/><text fill="#000000" font-family="sans-serif" font-size="14" lengthAdjust="spacing" textLength="196" x="182.6957" y="134.6858">Jouer en créeant une partie</text><ellipse cx="637.9263" cy="203.7853" fill="#FEFECE" filter="url(#fs2vi37uhctjv)" rx="84.4263" ry="19.2853" style="stroke:#A80036;stroke-width:1.5;"/><text fill="#000000" font-family="sans-serif" font-size="14" lengthAdjust="spacing" textLength="129" x="573.305" y="206.6739">Créer Tamagotchi</text><ellipse cx="638.1952" cy="132.839" fill="#FEFECE" filter="url(#fs2vi37uhctjv)" rx="69.6952" ry="16.339" style="stroke:#A80036;stroke-width:1.5;"/><text fill="#000000" font-family="sans-serif" font-size="14" lengthAdjust="spacing" textLength="92" x="589.1952" y="136.5866">Debut Partie</text><ellipse cx="955.6868" cy="63.9374" fill="#FEFECE" filter="url(#fs2vi37uhctjv)" rx="72.6868" ry="16.9374" style="stroke:#A80036;stroke-width:1.5;"/><text fill="#000000" font-family="sans-serif" font-size="14" lengthAdjust="spacing" textLength="100" x="902.6868" y="67.6849">Choisir Action</text><ellipse cx="1282.2652" cy="66.153" fill="#FEFECE" filter="url(#fs2vi37uhctjv)" rx="113.7652" ry="25.153" style="stroke:#A80036;stroke-width:1.5;"/><text fill="#000000" font-family="sans-serif" font-size="14" lengthAdjust="spacing" textLength="194" x="1185.2652" y="68.9997">Vérification Validité Action</text><ellipse cx="637.9744" cy="60.8949" fill="#FEFECE" filter="url(#fs2vi37uhctjv)" rx="87.4744" ry="19.8949" style="stroke:#A80036;stroke-width:1.5;"/><text fill="#000000" font-family="sans-serif" font-size="14" lengthAdjust="spacing" textLength="136" x="569.9744" y="63.7416">Sauvegarder Partie</text><ellipse cx="955.6066" cy="200.8213" fill="#FEFECE" filter="url(#fs2vi37uhctjv)" rx="74.6066" ry="17.3213" style="stroke:#A80036;stroke-width:1.5;"/><text fill="#000000" font-family="sans-serif" font-size="14" lengthAdjust="spacing" textLength="105" x="900.1066" y="204.5689">Choisir Espêce</text><ellipse cx="955.5233" cy="131.9047" fill="#FEFECE" filter="url(#fs2vi37uhctjv)" rx="67.5233" ry="15.9047" style="stroke:#A80036;stroke-width:1.5;"/><text fill="#000000" font-family="sans-serif" font-size="14" lengthAdjust="spacing" textLength="86" x="909.5233" y="135.6522">Choisir Nom</text><ellipse cx="1282.4128" cy="167.9826" fill="#FEFECE" filter="url(#fs2vi37uhctjv)" rx="87.9128" ry="19.9826" style="stroke:#A80036;stroke-width:1.5;"/><text fill="#000000" font-family="sans-serif" font-size="14" lengthAdjust="spacing" textLength="137" x="1213.9128" y="170.8292">Remplir Formulaire</text><ellipse cx="1649.8359" cy="167.9672" fill="#FEFECE" filter="url(#fs2vi37uhctjv)" rx="112.8359" ry="24.9672" style="stroke:#A80036;stroke-width:1.5;"/><text fill="#000000" font-family="sans-serif" font-size="14" lengthAdjust="spacing" textLength="192" x="1553.8359" y="170.8139">créer instance Tamagotchi</text><!--MD5=[a37179c1d3233689924b1181b4ae707a]
link finPart to occupeTama2--><path d="M341.806,767.464 C398.085,774.4296 482.796,784.9142 547.058,792.8679 " fill="none" id="finPart-to-occupeTama2" style="stroke:#A80036;stroke-width:1.0;stroke-dasharray:7.0,7.0;"/><polygon fill="#A80036" points="552.038,793.4843,543.5976,788.4089,547.0759,792.87,542.6148,796.3483,552.038,793.4843" style="stroke:#A80036;stroke-width:1.0;"/><text fill="#000000" font-family="sans-serif" font-size="13" lengthAdjust="spacing" textLength="61" x="426" y="774.0669">«include»</text><!--MD5=[9ed720ed22f0112d143cd8edc1286390]
link user3 to finPart--><path d="M105.124,760 C134.144,760 175.963,760 211.373,760 " fill="none" id="user3-finPart" style="stroke:#A80036;stroke-width:1.0;"/><!--MD5=[8d61e01457a66d4969e002e913cacce0]
link finPart to delaisserTama2--><path d="M316.234,746.224 C378.976,721.339 511.507,668.773 585.061,639.6 " fill="none" id="finPart-to-delaisserTama2" style="stroke:#A80036;stroke-width:1.0;stroke-dasharray:7.0,7.0;"/><polygon fill="#A80036" points="589.82,637.713,579.9793,637.3124,585.1721,639.5561,582.9283,644.749,589.82,637.713" style="stroke:#A80036;stroke-width:1.0;"/><text fill="#000000" font-family="sans-serif" font-size="13" lengthAdjust="spacing" textLength="61" x="426" y="677.0669">«include»</text><!--MD5=[23e0a161065c6c0e362018787c18ab85]
reverse link occupeTama2 to mortTama2--><path d="M638,776.6045 C638,761.6347 638,743.467 638,730.05 " fill="none" id="occupeTama2-backto-mortTama2" style="stroke:#A80036;stroke-width:1.0;stroke-dasharray:7.0,7.0;"/><polygon fill="#A80036" points="638,781.9603,642,772.9603,638,776.9603,634,772.9603,638,781.9603" style="stroke:#A80036;stroke-width:1.0;"/><text fill="#000000" font-family="sans-serif" font-size="13" lengthAdjust="spacing" textLength="61" x="596" y="760.5669">«extend»</text><!--MD5=[829dc6884bd47a9bfd339af8574f16ef]
link mortTama2 to delaisserTama2--><path d="M638,691.938 C638,678.625 638,660.665 638,645.898 " fill="none" id="mortTama2-to-delaisserTama2" style="stroke:#A80036;stroke-width:1.0;stroke-dasharray:7.0,7.0;"/><polygon fill="#A80036" points="638,640.617,634,649.617,638,645.617,642,649.617,638,640.617" style="stroke:#A80036;stroke-width:1.0;"/><text fill="#000000" font-family="sans-serif" font-size="13" lengthAdjust="spacing" textLength="61" x="596" y="670.8169">«extend»</text><!--MD5=[38db088148483edbf68ab80485731097]
link choixAction3 to validationAction3--><path d="M1028.22,791 C1077.48,791 1143.12,791 1195.24,791 " fill="none" id="choixAction3-to-validationAction3" style="stroke:#A80036;stroke-width:1.0;stroke-dasharray:7.0,7.0;"/><polygon fill="#A80036" points="1200.24,791,1191.24,787,1195.24,791,1191.24,795,1200.24,791" style="stroke:#A80036;stroke-width:1.0;"/><text fill="#000000" font-family="sans-serif" font-size="13" lengthAdjust="spacing" textLength="61" x="1061" y="787.0669">«include»</text><!--MD5=[308538c1ceb598fc69b8c6b012affd02]
link occupeTama2 to choixAction3--><path d="M734.088,800.0819 C780.291,798.1782 835.058,795.9215 878.441,794.134 " fill="none" id="occupeTama2-to-choixAction3" style="stroke:#A80036;stroke-width:1.0;stroke-dasharray:7.0,7.0;"/><polygon fill="#A80036" points="883.673,793.9184,874.516,790.2921,878.6772,794.1241,874.8452,798.2853,883.673,793.9184" style="stroke:#A80036;stroke-width:1.0;"/><text fill="#000000" font-family="sans-serif" font-size="13" lengthAdjust="spacing" textLength="61" x="789" y="791.0669">«include»</text><!--MD5=[b58a471e181fc46d27db2f4ca84249aa]
link user2 to repPart--><path d="M105.124,373 C127.123,373 156.478,373 184.819,373 " fill="none" id="user2-repPart" style="stroke:#A80036;stroke-width:1.0;"/><!--MD5=[f913f6e21bbcff72d450f07579ab6a02]
link repPart to recreeInstanc--><path d="M363.505,362.158 C412.869,355.632 476.275,347.249 529.605,340.198 " fill="none" id="repPart-to-recreeInstanc" style="stroke:#A80036;stroke-width:1.0;stroke-dasharray:7.0,7.0;"/><polygon fill="#A80036" points="534.734,339.52,525.2872,336.7348,529.7772,340.1757,526.3363,344.6657,534.734,339.52" style="stroke:#A80036;stroke-width:1.0;"/><text fill="#000000" font-family="sans-serif" font-size="13" lengthAdjust="spacing" textLength="61" x="426" y="342.0669">«include»</text><!--MD5=[506baf76b8aa365be1519561f85c4953]
link repPart to occupeTama--><path d="M336.657,390.532 C401.507,411.146 508.804,445.251 576.061,466.63 " fill="none" id="repPart-to-occupeTama" style="stroke:#A80036;stroke-width:1.0;stroke-dasharray:7.0,7.0;"/><polygon fill="#A80036" points="580.833,468.147,573.4669,461.6094,576.0678,466.6329,571.0443,469.2337,580.833,468.147" style="stroke:#A80036;stroke-width:1.0;"/><text fill="#000000" font-family="sans-serif" font-size="13" lengthAdjust="spacing" textLength="61" x="426" y="415.0669">«include»</text><!--MD5=[d7ed2ff47e891809c48a0ac7fe30d8e0]
link mortTama to occupeTama--><path d="M362.321,488.986 C382.771,489.407 404.692,489.788 425,490 C452.998,490.293 460.003,490.376 488,490 C503.459,489.793 519.818,489.464 535.815,489.082 " fill="none" id="mortTama-to-occupeTama" style="stroke:#A80036;stroke-width:1.0;stroke-dasharray:7.0,7.0;"/><polygon fill="#A80036" points="541.225,488.951,532.1305,485.1707,536.2265,489.0724,532.3248,493.1684,541.225,488.951" style="stroke:#A80036;stroke-width:1.0;"/><text fill="#000000" font-family="sans-serif" font-size="13" lengthAdjust="spacing" textLength="61" x="426" y="486.0669">«extend»</text><!--MD5=[d532f6a9a514065603ad30cc9c60d9cd]
link repPart to savePartie2--><path d="M368.465,381.562 C424.435,387.072 496.82,394.199 552.332,399.664 " fill="none" id="repPart-to-savePartie2" style="stroke:#A80036;stroke-width:1.0;stroke-dasharray:7.0,7.0;"/><polygon fill="#A80036" points="557.311,400.154,548.7463,395.2912,552.3351,399.664,547.9623,403.2527,557.311,400.154" style="stroke:#A80036;stroke-width:1.0;"/><text fill="#000000" font-family="sans-serif" font-size="13" lengthAdjust="spacing" textLength="61" x="426" y="383.0669">«include»</text><!--MD5=[f2122fbb2f62be47bd902665fef0ea3b]
link recreeInstanc to chargPartie--><path d="M758.277,326.378 C797.695,326.503 840.526,326.639 876.086,326.751 " fill="none" id="recreeInstanc-to-chargPartie" style="stroke:#A80036;stroke-width:1.0;stroke-dasharray:7.0,7.0;"/><polygon fill="#A80036" points="881.278,326.768,872.2906,322.7397,876.278,326.7523,872.2655,330.7397,881.278,326.768" style="stroke:#A80036;stroke-width:1.0;"/><text fill="#000000" font-family="sans-serif" font-size="13" lengthAdjust="spacing" textLength="61" x="789" y="322.0669">«include»</text><!--MD5=[540c52d3e4bfc1a84edd9ce142f3f548]
link chargPartie to recupFichier--><path d="M1029.84,327.226 C1064.6,327.333 1107.24,327.464 1147.48,327.588 " fill="none" id="chargPartie-to-recupFichier" style="stroke:#A80036;stroke-width:1.0;stroke-dasharray:7.0,7.0;"/><polygon fill="#A80036" points="1152.89,327.604,1143.9015,323.5783,1147.89,327.5897,1143.8786,331.5783,1152.89,327.604" style="stroke:#A80036;stroke-width:1.0;"/><text fill="#000000" font-family="sans-serif" font-size="13" lengthAdjust="spacing" textLength="61" x="1061" y="323.0669">«include»</text><!--MD5=[4d0c49e65a400d73c846044affdcf8bd]
link occupeTama to choixAction2--><path d="M735.805,486 C781.409,486 835.043,486 877.784,486 " fill="none" id="occupeTama-to-choixAction2" style="stroke:#A80036;stroke-width:1.0;stroke-dasharray:7.0,7.0;"/><polygon fill="#A80036" points="882.941,486,873.941,482,877.941,486,873.941,490,882.941,486" style="stroke:#A80036;stroke-width:1.0;"/><text fill="#000000" font-family="sans-serif" font-size="13" lengthAdjust="spacing" textLength="61" x="789" y="482.0669">«include»</text><!--MD5=[f2fd1254974b95b6d61495c468007a03]
link choixAction2 to validiteAct2--><path d="M1028.22,486 C1067.82,486 1118.01,486 1163.25,486 " fill="none" id="choixAction2-to-validiteAct2" style="stroke:#A80036;stroke-width:1.0;stroke-dasharray:7.0,7.0;"/><polygon fill="#A80036" points="1168.45,486,1159.45,482,1163.45,486,1159.45,490,1168.45,486" style="stroke:#A80036;stroke-width:1.0;"/><text fill="#000000" font-family="sans-serif" font-size="13" lengthAdjust="spacing" textLength="61" x="1061" y="482.0669">«include»</text><!--MD5=[546f432b7c1144346978ae0582b61b23]
link user1 to jcreerPart--><path d="M105.124,132 C122.208,132 143.729,132 165.766,132 " fill="none" id="user1-jcreerPart" style="stroke:#A80036;stroke-width:1.0;"/><!--MD5=[bfe9f99fae48f0d8e24ddbeda87b2db9]
link jcreerPart to creeTama--><path d="M365.749,149.063 C427.734,161.617 510.926,178.466 568.767,190.181 " fill="none" id="jcreerPart-to-creeTama" style="stroke:#A80036;stroke-width:1.0;stroke-dasharray:7.0,7.0;"/><polygon fill="#A80036" points="573.933,191.227,565.9063,185.5198,569.0325,190.2343,564.318,193.3606,573.933,191.227" style="stroke:#A80036;stroke-width:1.0;"/><text fill="#000000" font-family="sans-serif" font-size="13" lengthAdjust="spacing" textLength="61" x="426" y="157.0669">«include»</text><!--MD5=[6cbafabc214047de40dab4e15cd62add]
link creeTama to choixnom1--><path d="M698.714,190.373 C757.154,177.036 845.334,156.913 901.394,144.119 " fill="none" id="creeTama-to-choixnom1" style="stroke:#A80036;stroke-width:1.0;stroke-dasharray:7.0,7.0;"/><polygon fill="#A80036" points="906.381,142.981,896.7164,141.0846,901.5064,144.0939,898.4971,148.8839,906.381,142.981" style="stroke:#A80036;stroke-width:1.0;"/><text fill="#000000" font-family="sans-serif" font-size="13" lengthAdjust="spacing" textLength="61" x="789" y="153.0669">«include»</text><!--MD5=[3a882ba188b3f175ad4820abf5acca59]
link creeTama to choixEspece--><path d="M722.72,203.204 C770.189,202.753 829.224,202.191 875.834,201.748 " fill="none" id="creeTama-to-choixEspece" style="stroke:#A80036;stroke-width:1.0;stroke-dasharray:7.0,7.0;"/><polygon fill="#A80036" points="880.878,201.7,871.8407,197.785,875.8782,201.7471,871.9161,205.7847,880.878,201.7" style="stroke:#A80036;stroke-width:1.0;"/><text fill="#000000" font-family="sans-serif" font-size="13" lengthAdjust="spacing" textLength="61" x="789" y="198.0669">«include»</text><!--MD5=[795d867ad311bdac1831445c804b9913]
link choixEspece to formul--><path d="M1029.56,198.574 C1058.68,197.21 1092.47,195.129 1123,192 C1150.38,189.193 1180.27,184.973 1206.63,180.85 " fill="none" id="choixEspece-to-formul" style="stroke:#A80036;stroke-width:1.0;stroke-dasharray:7.0,7.0;"/><polygon fill="#A80036" points="1211.85,180.027,1202.3333,177.4908,1206.9121,180.8126,1203.5903,185.3914,1211.85,180.027" style="stroke:#A80036;stroke-width:1.0;"/><text fill="#000000" font-family="sans-serif" font-size="13" lengthAdjust="spacing" textLength="61" x="1061" y="188.0669">«include»</text><!--MD5=[1c06c8c900b3125f57285c8f9ae1930d]
link choixnom1 to formul--><path d="M1016.87,138.687 C1067.83,144.332 1141.33,152.474 1197.95,158.745 " fill="none" id="choixnom1-to-formul" style="stroke:#A80036;stroke-width:1.0;stroke-dasharray:7.0,7.0;"/><polygon fill="#A80036" points="1203.02,159.307,1194.5216,154.3293,1198.0511,158.75,1193.6304,162.2795,1203.02,159.307" style="stroke:#A80036;stroke-width:1.0;"/><text fill="#000000" font-family="sans-serif" font-size="13" lengthAdjust="spacing" textLength="61" x="1061" y="139.0669">«include»</text><!--MD5=[118f6d75bf46bf542bbf0d5cf0720cea]
link formul to creeInstanc--><path d="M1370.58,168 C1418.86,168 1479.53,168 1531.91,168 " fill="none" id="formul-to-creeInstanc" style="stroke:#A80036;stroke-width:1.0;stroke-dasharray:7.0,7.0;"/><polygon fill="#A80036" points="1536.95,168,1527.95,164,1531.95,168,1527.95,172,1536.95,168" style="stroke:#A80036;stroke-width:1.0;"/><text fill="#000000" font-family="sans-serif" font-size="13" lengthAdjust="spacing" textLength="61" x="1445" y="164.0669">«extend»</text><!--MD5=[7105d47e463476040b221a0d44fc3487]
link jcreerPart to debPartie--><path d="M395.449,132.321 C450.413,132.475 514.762,132.656 563.216,132.792 " fill="none" id="jcreerPart-to-debPartie" style="stroke:#A80036;stroke-width:1.0;stroke-dasharray:7.0,7.0;"/><polygon fill="#A80036" points="568.448,132.807,559.4595,128.7813,563.448,132.7927,559.4366,136.7813,568.448,132.807" style="stroke:#A80036;stroke-width:1.0;"/><text fill="#000000" font-family="sans-serif" font-size="13" lengthAdjust="spacing" textLength="61" x="426" y="128.0669">«include»</text><!--MD5=[ae4907989a3ec06f63a4a07f9265960c]
link choixAction1 to validiteAct--><path d="M1028.22,64.441 C1067.82,64.685 1118.01,64.994 1163.25,65.272 " fill="none" id="choixAction1-to-validiteAct" style="stroke:#A80036;stroke-width:1.0;stroke-dasharray:7.0,7.0;"/><polygon fill="#A80036" points="1168.45,65.304,1159.4846,61.227,1163.4502,65.2611,1159.416,69.2267,1168.45,65.304" style="stroke:#A80036;stroke-width:1.0;"/><text fill="#000000" font-family="sans-serif" font-size="13" lengthAdjust="spacing" textLength="61" x="1061" y="61.0669">«include»</text><!--MD5=[965ad417c2b9e5d2099655d41e6d1668]
link debPartie to choixAction1--><path d="M689.691,121.914 C746.279,109.538 837.668,89.551 896.912,76.594 " fill="none" id="debPartie-to-choixAction1" style="stroke:#A80036;stroke-width:1.0;stroke-dasharray:7.0,7.0;"/><polygon fill="#A80036" points="901.831,75.519,892.1842,73.5343,896.9465,76.5873,893.8935,81.3496,901.831,75.519" style="stroke:#A80036;stroke-width:1.0;"/><text fill="#000000" font-family="sans-serif" font-size="13" lengthAdjust="spacing" textLength="61" x="789" y="84.0669">«include»</text><!--MD5=[1425082971c4b1b701237dac450e598f]
link jcreerPart to savePartie--><path d="M366.199,115.084 C427.301,102.881 508.833,86.597 566.418,75.096 " fill="none" id="jcreerPart-to-savePartie" style="stroke:#A80036;stroke-width:1.0;stroke-dasharray:7.0,7.0;"/><polygon fill="#A80036" points="571.566,74.068,561.9572,71.907,566.6627,75.0467,563.523,79.7522,571.566,74.068" style="stroke:#A80036;stroke-width:1.0;"/><text fill="#000000" font-family="sans-serif" font-size="13" lengthAdjust="spacing" textLength="61" x="426" y="88.0669">«include»</text><!--MD5=[62e4ab7b2da17f5bce6401470d3d874b]
@startuml
left to right direction

package  "Cas d'utilisation 3"  #white{
        actor "Utilisateur" as user3
        
        usecase "Fin de Partie" as finPart
        usecase "s'occuper Tamagotchi" as occupeTama2
   
        usecase "Délaisser Tamagotchi" as delaisserTama2
        usecase "Mort Tamagotchi" as mortTama2
        usecase "Choisir Action" as choixAction3
        usecase "Validation Action" as validationAction3


     finPart ..> occupeTama2 : <<include>>

        user3 - - finPart

        finPart ..> delaisserTama2 : <<include>>

        mortTama2 .left.> occupeTama2 : <<extend>>
        mortTama2 .right.> delaisserTama2 : <<extend>>
        choixAction3 ..> validationAction3 : <<include>>

        occupeTama2 ..> choixAction3 : <<include>>

}



package "Cas d'utilisation 2" #white{
    actor "Utilisateur" as user2
    usecase "Reprendre une Partie" as repPart
        user2 - - repPart

        usecase "recréer instance Tamagotchi" as recreeInstanc
        repPart ..> recreeInstanc : <<include>>
        usecase "s'occuper Tamagotchi" as occupeTama
        repPart ..> occupeTama : <<include>>


        usecase "Mort Tamagotchi" as mortTama
        mortTama ..> occupeTama : <<extend>>

        usecase "Sauvegarder Partie" as savePartie2
        repPart ..> savePartie2 : <<include>>

        usecase "Charger Partie" as chargPartie
        recreeInstanc ..> chargPartie : <<include>>

        usecase "récupérer fichier de sauvegarde" as recupFichier
        chargPartie ..> recupFichier : <<include>>

        usecase "Choisir Action" as choixAction2
        occupeTama ..> choixAction2 : <<include>>

        usecase "Vérification Validité Action" as validiteAct2
        choixAction2 ..> validiteAct2 : <<include>>

}


package "Cas d'utilisation 1"  #white{
    actor Utilisateur as user1
    usecase "Jouer en créeant une partie" as jcreerPart
    usecase "Créer Tamagotchi" as creeTama
    usecase "Debut Partie" as debPartie
    usecase "Choisir Action" as choixAction1
    usecase "Vérification Validité Action" as validiteAct
    usecase "Sauvegarder Partie" as savePartie
    usecase "Choisir Espêce" as choixEspece
    usecase "Choisir Nom" as choixnom1
    usecase "Remplir Formulaire" as formul
    usecase "créer instance Tamagotchi" as creeInstanc
    user1 - - jcreerPart
    jcreerPart ..> creeTama : <<include>>
    creeTama ..> choixnom1 : <<include>>
    creeTama ..> choixEspece : <<include>>
    choixEspece ..> formul : <<include>>
    choixnom1 ..> formul : <<include>>
    formul ..> creeInstanc : <<extend>>
    jcreerPart ..> debPartie : <<include>>
    choixAction1 ..> validiteAct : <<include>>
    debPartie ..> choixAction1 : <<include>>
    jcreerPart ..> savePartie : <<include>>
}
@enduml

PlantUML version 1.2021.15(Tue Nov 30 16:45:34 UTC 2021)
(GPL source distribution)
Java Runtime: Java(TM) SE Runtime Environment
JVM: Java HotSpot(TM) 64-Bit Server VM
Default Encoding: UTF-8
Language: en
Country: US
--></g></svg>